G04 #@! TF.GenerationSoftware,KiCad,Pcbnew,5.1.2-f72e74a~84~ubuntu18.04.1*
G04 #@! TF.CreationDate,2019-09-15T07:59:56+02:00*
G04 #@! TF.ProjectId,PowerElectrobot,506f7765-7245-46c6-9563-74726f626f74,rev?*
G04 #@! TF.SameCoordinates,Original*
G04 #@! TF.FileFunction,Legend,Bot*
G04 #@! TF.FilePolarity,Positive*
%FSLAX46Y46*%
G04 Gerber Fmt 4.6, Leading zero omitted, Abs format (unit mm)*
G04 Created by KiCad (PCBNEW 5.1.2-f72e74a~84~ubuntu18.04.1) date 2019-09-15 07:59:56*
%MOMM*%
%LPD*%
G04 APERTURE LIST*
%ADD10C,0.500000*%
%ADD11C,0.120000*%
%ADD12C,0.150000*%
G04 APERTURE END LIST*
D10*
X72590000Y-111125000D02*
G75*
G03X72590000Y-111125000I-200000J0D01*
G01*
X120723000Y-101600000D02*
G75*
G03X120723000Y-101600000I-200000J0D01*
G01*
X120850000Y-92964000D02*
G75*
G03X120850000Y-92964000I-200000J0D01*
G01*
D11*
X117657200Y-84414736D02*
X117657200Y-85618864D01*
X119477200Y-84414736D02*
X119477200Y-85618864D01*
X103921936Y-94340000D02*
X105126064Y-94340000D01*
X103921936Y-96160000D02*
X105126064Y-96160000D01*
X130196000Y-85641264D02*
X130196000Y-84437136D01*
X128376000Y-85641264D02*
X128376000Y-84437136D01*
X96041936Y-77830000D02*
X97246064Y-77830000D01*
X96041936Y-79650000D02*
X97246064Y-79650000D01*
X83460000Y-85308064D02*
X83460000Y-84103936D01*
X81640000Y-85308064D02*
X81640000Y-84103936D01*
X94086000Y-85054064D02*
X94086000Y-83849936D01*
X95906000Y-85054064D02*
X95906000Y-83849936D01*
X111654000Y-91977936D02*
X111654000Y-93182064D01*
X109834000Y-91977936D02*
X109834000Y-93182064D01*
X111654000Y-99024064D02*
X111654000Y-97819936D01*
X109834000Y-99024064D02*
X109834000Y-97819936D01*
X111654000Y-102905936D02*
X111654000Y-104110064D01*
X109834000Y-102905936D02*
X109834000Y-104110064D01*
X111535936Y-109114000D02*
X112740064Y-109114000D01*
X111535936Y-107294000D02*
X112740064Y-107294000D01*
X82783000Y-110076064D02*
X82783000Y-108871936D01*
X84603000Y-110076064D02*
X84603000Y-108871936D01*
X78450064Y-103484000D02*
X77245936Y-103484000D01*
X78450064Y-105304000D02*
X77245936Y-105304000D01*
X98306937Y-93419001D02*
X99511065Y-93419001D01*
X98306937Y-91599001D02*
X99511065Y-91599001D01*
X103916937Y-93419001D02*
X105121065Y-93419001D01*
X103916937Y-91599001D02*
X105121065Y-91599001D01*
X100294064Y-85196000D02*
X99089936Y-85196000D01*
X100294064Y-87016000D02*
X99089936Y-87016000D01*
X127300400Y-84414736D02*
X127300400Y-85618864D01*
X125480400Y-84414736D02*
X125480400Y-85618864D01*
X124608000Y-84414736D02*
X124608000Y-85618864D01*
X122788000Y-84414736D02*
X122788000Y-85618864D01*
X85236000Y-81148000D02*
X86496000Y-81148000D01*
X92056000Y-81148000D02*
X90796000Y-81148000D01*
X85236000Y-84908000D02*
X85236000Y-81148000D01*
X92056000Y-87158000D02*
X92056000Y-81148000D01*
X116332000Y-92309000D02*
X119782000Y-92309000D01*
X116332000Y-92309000D02*
X114382000Y-92309000D01*
X116332000Y-97429000D02*
X118282000Y-97429000D01*
X116332000Y-97429000D02*
X114382000Y-97429000D01*
X116267000Y-106192000D02*
X114317000Y-106192000D01*
X116267000Y-106192000D02*
X118217000Y-106192000D01*
X116267000Y-101072000D02*
X114317000Y-101072000D01*
X116267000Y-101072000D02*
X119717000Y-101072000D01*
X76708000Y-106660000D02*
X78658000Y-106660000D01*
X76708000Y-106660000D02*
X74758000Y-106660000D01*
X76708000Y-111780000D02*
X78658000Y-111780000D01*
X76708000Y-111780000D02*
X73258000Y-111780000D01*
X135428400Y-71671264D02*
X135428400Y-70467136D01*
X133608400Y-71671264D02*
X133608400Y-70467136D01*
D12*
X118733866Y-85447142D02*
X118781485Y-85494761D01*
X118924342Y-85542380D01*
X119019580Y-85542380D01*
X119162438Y-85494761D01*
X119257676Y-85399523D01*
X119305295Y-85304285D01*
X119352914Y-85113809D01*
X119352914Y-84970952D01*
X119305295Y-84780476D01*
X119257676Y-84685238D01*
X119162438Y-84590000D01*
X119019580Y-84542380D01*
X118924342Y-84542380D01*
X118781485Y-84590000D01*
X118733866Y-84637619D01*
X117781485Y-85542380D02*
X118352914Y-85542380D01*
X118067200Y-85542380D02*
X118067200Y-84542380D01*
X118162438Y-84685238D01*
X118257676Y-84780476D01*
X118352914Y-84828095D01*
X104814666Y-97639142D02*
X104862285Y-97686761D01*
X105005142Y-97734380D01*
X105100380Y-97734380D01*
X105243238Y-97686761D01*
X105338476Y-97591523D01*
X105386095Y-97496285D01*
X105433714Y-97305809D01*
X105433714Y-97162952D01*
X105386095Y-96972476D01*
X105338476Y-96877238D01*
X105243238Y-96782000D01*
X105100380Y-96734380D01*
X105005142Y-96734380D01*
X104862285Y-96782000D01*
X104814666Y-96829619D01*
X104433714Y-96829619D02*
X104386095Y-96782000D01*
X104290857Y-96734380D01*
X104052761Y-96734380D01*
X103957523Y-96782000D01*
X103909904Y-96829619D01*
X103862285Y-96924857D01*
X103862285Y-97020095D01*
X103909904Y-97162952D01*
X104481333Y-97734380D01*
X103862285Y-97734380D01*
X129452666Y-85396342D02*
X129500285Y-85443961D01*
X129643142Y-85491580D01*
X129738380Y-85491580D01*
X129881238Y-85443961D01*
X129976476Y-85348723D01*
X130024095Y-85253485D01*
X130071714Y-85063009D01*
X130071714Y-84920152D01*
X130024095Y-84729676D01*
X129976476Y-84634438D01*
X129881238Y-84539200D01*
X129738380Y-84491580D01*
X129643142Y-84491580D01*
X129500285Y-84539200D01*
X129452666Y-84586819D01*
X129119333Y-84491580D02*
X128500285Y-84491580D01*
X128833619Y-84872533D01*
X128690761Y-84872533D01*
X128595523Y-84920152D01*
X128547904Y-84967771D01*
X128500285Y-85063009D01*
X128500285Y-85301104D01*
X128547904Y-85396342D01*
X128595523Y-85443961D01*
X128690761Y-85491580D01*
X128976476Y-85491580D01*
X129071714Y-85443961D01*
X129119333Y-85396342D01*
X97448666Y-77319142D02*
X97496285Y-77366761D01*
X97639142Y-77414380D01*
X97734380Y-77414380D01*
X97877238Y-77366761D01*
X97972476Y-77271523D01*
X98020095Y-77176285D01*
X98067714Y-76985809D01*
X98067714Y-76842952D01*
X98020095Y-76652476D01*
X97972476Y-76557238D01*
X97877238Y-76462000D01*
X97734380Y-76414380D01*
X97639142Y-76414380D01*
X97496285Y-76462000D01*
X97448666Y-76509619D01*
X96543904Y-76414380D02*
X97020095Y-76414380D01*
X97067714Y-76890571D01*
X97020095Y-76842952D01*
X96924857Y-76795333D01*
X96686761Y-76795333D01*
X96591523Y-76842952D01*
X96543904Y-76890571D01*
X96496285Y-76985809D01*
X96496285Y-77223904D01*
X96543904Y-77319142D01*
X96591523Y-77366761D01*
X96686761Y-77414380D01*
X96924857Y-77414380D01*
X97020095Y-77366761D01*
X97067714Y-77319142D01*
X82716666Y-88241142D02*
X82764285Y-88288761D01*
X82907142Y-88336380D01*
X83002380Y-88336380D01*
X83145238Y-88288761D01*
X83240476Y-88193523D01*
X83288095Y-88098285D01*
X83335714Y-87907809D01*
X83335714Y-87764952D01*
X83288095Y-87574476D01*
X83240476Y-87479238D01*
X83145238Y-87384000D01*
X83002380Y-87336380D01*
X82907142Y-87336380D01*
X82764285Y-87384000D01*
X82716666Y-87431619D01*
X82383333Y-87336380D02*
X81716666Y-87336380D01*
X82145238Y-88336380D01*
X95162666Y-87987142D02*
X95210285Y-88034761D01*
X95353142Y-88082380D01*
X95448380Y-88082380D01*
X95591238Y-88034761D01*
X95686476Y-87939523D01*
X95734095Y-87844285D01*
X95781714Y-87653809D01*
X95781714Y-87510952D01*
X95734095Y-87320476D01*
X95686476Y-87225238D01*
X95591238Y-87130000D01*
X95448380Y-87082380D01*
X95353142Y-87082380D01*
X95210285Y-87130000D01*
X95162666Y-87177619D01*
X94591238Y-87510952D02*
X94686476Y-87463333D01*
X94734095Y-87415714D01*
X94781714Y-87320476D01*
X94781714Y-87272857D01*
X94734095Y-87177619D01*
X94686476Y-87130000D01*
X94591238Y-87082380D01*
X94400761Y-87082380D01*
X94305523Y-87130000D01*
X94257904Y-87177619D01*
X94210285Y-87272857D01*
X94210285Y-87320476D01*
X94257904Y-87415714D01*
X94305523Y-87463333D01*
X94400761Y-87510952D01*
X94591238Y-87510952D01*
X94686476Y-87558571D01*
X94734095Y-87606190D01*
X94781714Y-87701428D01*
X94781714Y-87891904D01*
X94734095Y-87987142D01*
X94686476Y-88034761D01*
X94591238Y-88082380D01*
X94400761Y-88082380D01*
X94305523Y-88034761D01*
X94257904Y-87987142D01*
X94210285Y-87891904D01*
X94210285Y-87701428D01*
X94257904Y-87606190D01*
X94305523Y-87558571D01*
X94400761Y-87510952D01*
X113133142Y-90765333D02*
X113180761Y-90717714D01*
X113228380Y-90574857D01*
X113228380Y-90479619D01*
X113180761Y-90336761D01*
X113085523Y-90241523D01*
X112990285Y-90193904D01*
X112799809Y-90146285D01*
X112656952Y-90146285D01*
X112466476Y-90193904D01*
X112371238Y-90241523D01*
X112276000Y-90336761D01*
X112228380Y-90479619D01*
X112228380Y-90574857D01*
X112276000Y-90717714D01*
X112323619Y-90765333D01*
X113228380Y-91241523D02*
X113228380Y-91432000D01*
X113180761Y-91527238D01*
X113133142Y-91574857D01*
X112990285Y-91670095D01*
X112799809Y-91717714D01*
X112418857Y-91717714D01*
X112323619Y-91670095D01*
X112276000Y-91622476D01*
X112228380Y-91527238D01*
X112228380Y-91336761D01*
X112276000Y-91241523D01*
X112323619Y-91193904D01*
X112418857Y-91146285D01*
X112656952Y-91146285D01*
X112752190Y-91193904D01*
X112799809Y-91241523D01*
X112847428Y-91336761D01*
X112847428Y-91527238D01*
X112799809Y-91622476D01*
X112752190Y-91670095D01*
X112656952Y-91717714D01*
X109323142Y-97909142D02*
X109370761Y-97861523D01*
X109418380Y-97718666D01*
X109418380Y-97623428D01*
X109370761Y-97480571D01*
X109275523Y-97385333D01*
X109180285Y-97337714D01*
X108989809Y-97290095D01*
X108846952Y-97290095D01*
X108656476Y-97337714D01*
X108561238Y-97385333D01*
X108466000Y-97480571D01*
X108418380Y-97623428D01*
X108418380Y-97718666D01*
X108466000Y-97861523D01*
X108513619Y-97909142D01*
X109418380Y-98861523D02*
X109418380Y-98290095D01*
X109418380Y-98575809D02*
X108418380Y-98575809D01*
X108561238Y-98480571D01*
X108656476Y-98385333D01*
X108704095Y-98290095D01*
X108418380Y-99480571D02*
X108418380Y-99575809D01*
X108466000Y-99671047D01*
X108513619Y-99718666D01*
X108608857Y-99766285D01*
X108799333Y-99813904D01*
X109037428Y-99813904D01*
X109227904Y-99766285D01*
X109323142Y-99718666D01*
X109370761Y-99671047D01*
X109418380Y-99575809D01*
X109418380Y-99480571D01*
X109370761Y-99385333D01*
X109323142Y-99337714D01*
X109227904Y-99290095D01*
X109037428Y-99242476D01*
X108799333Y-99242476D01*
X108608857Y-99290095D01*
X108513619Y-99337714D01*
X108466000Y-99385333D01*
X108418380Y-99480571D01*
X109281142Y-102865142D02*
X109328761Y-102817523D01*
X109376380Y-102674666D01*
X109376380Y-102579428D01*
X109328761Y-102436571D01*
X109233523Y-102341333D01*
X109138285Y-102293714D01*
X108947809Y-102246095D01*
X108804952Y-102246095D01*
X108614476Y-102293714D01*
X108519238Y-102341333D01*
X108424000Y-102436571D01*
X108376380Y-102579428D01*
X108376380Y-102674666D01*
X108424000Y-102817523D01*
X108471619Y-102865142D01*
X109376380Y-103817523D02*
X109376380Y-103246095D01*
X109376380Y-103531809D02*
X108376380Y-103531809D01*
X108519238Y-103436571D01*
X108614476Y-103341333D01*
X108662095Y-103246095D01*
X109376380Y-104769904D02*
X109376380Y-104198476D01*
X109376380Y-104484190D02*
X108376380Y-104484190D01*
X108519238Y-104388952D01*
X108614476Y-104293714D01*
X108662095Y-104198476D01*
X112780857Y-110381142D02*
X112828476Y-110428761D01*
X112971333Y-110476380D01*
X113066571Y-110476380D01*
X113209428Y-110428761D01*
X113304666Y-110333523D01*
X113352285Y-110238285D01*
X113399904Y-110047809D01*
X113399904Y-109904952D01*
X113352285Y-109714476D01*
X113304666Y-109619238D01*
X113209428Y-109524000D01*
X113066571Y-109476380D01*
X112971333Y-109476380D01*
X112828476Y-109524000D01*
X112780857Y-109571619D01*
X111828476Y-110476380D02*
X112399904Y-110476380D01*
X112114190Y-110476380D02*
X112114190Y-109476380D01*
X112209428Y-109619238D01*
X112304666Y-109714476D01*
X112399904Y-109762095D01*
X111447523Y-109571619D02*
X111399904Y-109524000D01*
X111304666Y-109476380D01*
X111066571Y-109476380D01*
X110971333Y-109524000D01*
X110923714Y-109571619D01*
X110876095Y-109666857D01*
X110876095Y-109762095D01*
X110923714Y-109904952D01*
X111495142Y-110476380D01*
X110876095Y-110476380D01*
X85870142Y-108831142D02*
X85917761Y-108783523D01*
X85965380Y-108640666D01*
X85965380Y-108545428D01*
X85917761Y-108402571D01*
X85822523Y-108307333D01*
X85727285Y-108259714D01*
X85536809Y-108212095D01*
X85393952Y-108212095D01*
X85203476Y-108259714D01*
X85108238Y-108307333D01*
X85013000Y-108402571D01*
X84965380Y-108545428D01*
X84965380Y-108640666D01*
X85013000Y-108783523D01*
X85060619Y-108831142D01*
X85965380Y-109783523D02*
X85965380Y-109212095D01*
X85965380Y-109497809D02*
X84965380Y-109497809D01*
X85108238Y-109402571D01*
X85203476Y-109307333D01*
X85251095Y-109212095D01*
X84965380Y-110116857D02*
X84965380Y-110735904D01*
X85346333Y-110402571D01*
X85346333Y-110545428D01*
X85393952Y-110640666D01*
X85441571Y-110688285D01*
X85536809Y-110735904D01*
X85774904Y-110735904D01*
X85870142Y-110688285D01*
X85917761Y-110640666D01*
X85965380Y-110545428D01*
X85965380Y-110259714D01*
X85917761Y-110164476D01*
X85870142Y-110116857D01*
X78490857Y-102931142D02*
X78538476Y-102978761D01*
X78681333Y-103026380D01*
X78776571Y-103026380D01*
X78919428Y-102978761D01*
X79014666Y-102883523D01*
X79062285Y-102788285D01*
X79109904Y-102597809D01*
X79109904Y-102454952D01*
X79062285Y-102264476D01*
X79014666Y-102169238D01*
X78919428Y-102074000D01*
X78776571Y-102026380D01*
X78681333Y-102026380D01*
X78538476Y-102074000D01*
X78490857Y-102121619D01*
X77538476Y-103026380D02*
X78109904Y-103026380D01*
X77824190Y-103026380D02*
X77824190Y-102026380D01*
X77919428Y-102169238D01*
X78014666Y-102264476D01*
X78109904Y-102312095D01*
X76681333Y-102359714D02*
X76681333Y-103026380D01*
X76919428Y-101978761D02*
X77157523Y-102693047D01*
X76538476Y-102693047D01*
X99075667Y-94781381D02*
X99409001Y-94305191D01*
X99647096Y-94781381D02*
X99647096Y-93781381D01*
X99266143Y-93781381D01*
X99170905Y-93829001D01*
X99123286Y-93876620D01*
X99075667Y-93971858D01*
X99075667Y-94114715D01*
X99123286Y-94209953D01*
X99170905Y-94257572D01*
X99266143Y-94305191D01*
X99647096Y-94305191D01*
X98123286Y-94781381D02*
X98694715Y-94781381D01*
X98409001Y-94781381D02*
X98409001Y-93781381D01*
X98504239Y-93924239D01*
X98599477Y-94019477D01*
X98694715Y-94067096D01*
X104814666Y-91130380D02*
X105148000Y-90654190D01*
X105386095Y-91130380D02*
X105386095Y-90130380D01*
X105005142Y-90130380D01*
X104909904Y-90178000D01*
X104862285Y-90225619D01*
X104814666Y-90320857D01*
X104814666Y-90463714D01*
X104862285Y-90558952D01*
X104909904Y-90606571D01*
X105005142Y-90654190D01*
X105386095Y-90654190D01*
X104433714Y-90225619D02*
X104386095Y-90178000D01*
X104290857Y-90130380D01*
X104052761Y-90130380D01*
X103957523Y-90178000D01*
X103909904Y-90225619D01*
X103862285Y-90320857D01*
X103862285Y-90416095D01*
X103909904Y-90558952D01*
X104481333Y-91130380D01*
X103862285Y-91130380D01*
X99858666Y-84738380D02*
X100192000Y-84262190D01*
X100430095Y-84738380D02*
X100430095Y-83738380D01*
X100049142Y-83738380D01*
X99953904Y-83786000D01*
X99906285Y-83833619D01*
X99858666Y-83928857D01*
X99858666Y-84071714D01*
X99906285Y-84166952D01*
X99953904Y-84214571D01*
X100049142Y-84262190D01*
X100430095Y-84262190D01*
X99525333Y-83738380D02*
X98906285Y-83738380D01*
X99239619Y-84119333D01*
X99096761Y-84119333D01*
X99001523Y-84166952D01*
X98953904Y-84214571D01*
X98906285Y-84309809D01*
X98906285Y-84547904D01*
X98953904Y-84643142D01*
X99001523Y-84690761D01*
X99096761Y-84738380D01*
X99382476Y-84738380D01*
X99477714Y-84690761D01*
X99525333Y-84643142D01*
X126557066Y-85593180D02*
X126890400Y-85116990D01*
X127128495Y-85593180D02*
X127128495Y-84593180D01*
X126747542Y-84593180D01*
X126652304Y-84640800D01*
X126604685Y-84688419D01*
X126557066Y-84783657D01*
X126557066Y-84926514D01*
X126604685Y-85021752D01*
X126652304Y-85069371D01*
X126747542Y-85116990D01*
X127128495Y-85116990D01*
X125652304Y-84593180D02*
X126128495Y-84593180D01*
X126176114Y-85069371D01*
X126128495Y-85021752D01*
X126033257Y-84974133D01*
X125795161Y-84974133D01*
X125699923Y-85021752D01*
X125652304Y-85069371D01*
X125604685Y-85164609D01*
X125604685Y-85402704D01*
X125652304Y-85497942D01*
X125699923Y-85545561D01*
X125795161Y-85593180D01*
X126033257Y-85593180D01*
X126128495Y-85545561D01*
X126176114Y-85497942D01*
X123864666Y-85469180D02*
X124198000Y-84992990D01*
X124436095Y-85469180D02*
X124436095Y-84469180D01*
X124055142Y-84469180D01*
X123959904Y-84516800D01*
X123912285Y-84564419D01*
X123864666Y-84659657D01*
X123864666Y-84802514D01*
X123912285Y-84897752D01*
X123959904Y-84945371D01*
X124055142Y-84992990D01*
X124436095Y-84992990D01*
X123007523Y-84469180D02*
X123198000Y-84469180D01*
X123293238Y-84516800D01*
X123340857Y-84564419D01*
X123436095Y-84707276D01*
X123483714Y-84897752D01*
X123483714Y-85278704D01*
X123436095Y-85373942D01*
X123388476Y-85421561D01*
X123293238Y-85469180D01*
X123102761Y-85469180D01*
X123007523Y-85421561D01*
X122959904Y-85373942D01*
X122912285Y-85278704D01*
X122912285Y-85040609D01*
X122959904Y-84945371D01*
X123007523Y-84897752D01*
X123102761Y-84850133D01*
X123293238Y-84850133D01*
X123388476Y-84897752D01*
X123436095Y-84945371D01*
X123483714Y-85040609D01*
X87375904Y-87590380D02*
X87375904Y-88399904D01*
X87328285Y-88495142D01*
X87280666Y-88542761D01*
X87185428Y-88590380D01*
X86994952Y-88590380D01*
X86899714Y-88542761D01*
X86852095Y-88495142D01*
X86804476Y-88399904D01*
X86804476Y-87590380D01*
X86423523Y-87590380D02*
X85804476Y-87590380D01*
X86137809Y-87971333D01*
X85994952Y-87971333D01*
X85899714Y-88018952D01*
X85852095Y-88066571D01*
X85804476Y-88161809D01*
X85804476Y-88399904D01*
X85852095Y-88495142D01*
X85899714Y-88542761D01*
X85994952Y-88590380D01*
X86280666Y-88590380D01*
X86375904Y-88542761D01*
X86423523Y-88495142D01*
X117093904Y-90921380D02*
X117093904Y-91730904D01*
X117046285Y-91826142D01*
X116998666Y-91873761D01*
X116903428Y-91921380D01*
X116712952Y-91921380D01*
X116617714Y-91873761D01*
X116570095Y-91826142D01*
X116522476Y-91730904D01*
X116522476Y-90921380D01*
X115617714Y-91254714D02*
X115617714Y-91921380D01*
X115855809Y-90873761D02*
X116093904Y-91588047D01*
X115474857Y-91588047D01*
X117028904Y-99684380D02*
X117028904Y-100493904D01*
X116981285Y-100589142D01*
X116933666Y-100636761D01*
X116838428Y-100684380D01*
X116647952Y-100684380D01*
X116552714Y-100636761D01*
X116505095Y-100589142D01*
X116457476Y-100493904D01*
X116457476Y-99684380D01*
X115505095Y-99684380D02*
X115981285Y-99684380D01*
X116028904Y-100160571D01*
X115981285Y-100112952D01*
X115886047Y-100065333D01*
X115647952Y-100065333D01*
X115552714Y-100112952D01*
X115505095Y-100160571D01*
X115457476Y-100255809D01*
X115457476Y-100493904D01*
X115505095Y-100589142D01*
X115552714Y-100636761D01*
X115647952Y-100684380D01*
X115886047Y-100684380D01*
X115981285Y-100636761D01*
X116028904Y-100589142D01*
X77469904Y-112072380D02*
X77469904Y-112881904D01*
X77422285Y-112977142D01*
X77374666Y-113024761D01*
X77279428Y-113072380D01*
X77088952Y-113072380D01*
X76993714Y-113024761D01*
X76946095Y-112977142D01*
X76898476Y-112881904D01*
X76898476Y-112072380D01*
X75993714Y-112072380D02*
X76184190Y-112072380D01*
X76279428Y-112120000D01*
X76327047Y-112167619D01*
X76422285Y-112310476D01*
X76469904Y-112500952D01*
X76469904Y-112881904D01*
X76422285Y-112977142D01*
X76374666Y-113024761D01*
X76279428Y-113072380D01*
X76088952Y-113072380D01*
X75993714Y-113024761D01*
X75946095Y-112977142D01*
X75898476Y-112881904D01*
X75898476Y-112643809D01*
X75946095Y-112548571D01*
X75993714Y-112500952D01*
X76088952Y-112453333D01*
X76279428Y-112453333D01*
X76374666Y-112500952D01*
X76422285Y-112548571D01*
X76469904Y-112643809D01*
X136790780Y-70426342D02*
X136314590Y-70093009D01*
X136790780Y-69854914D02*
X135790780Y-69854914D01*
X135790780Y-70235866D01*
X135838400Y-70331104D01*
X135886019Y-70378723D01*
X135981257Y-70426342D01*
X136124114Y-70426342D01*
X136219352Y-70378723D01*
X136266971Y-70331104D01*
X136314590Y-70235866D01*
X136314590Y-69854914D01*
X136790780Y-71378723D02*
X136790780Y-70807295D01*
X136790780Y-71093009D02*
X135790780Y-71093009D01*
X135933638Y-70997771D01*
X136028876Y-70902533D01*
X136076495Y-70807295D01*
X135790780Y-71712057D02*
X135790780Y-72378723D01*
X136790780Y-71950152D01*
M02*
