M48
; DRILL file {KiCad 5.1.2-f72e74a~84~ubuntu18.04.1} date dim. 15 sept. 2019 12:20:11 CEST
; FORMAT={-:-/ absolute / inch / decimal}
; #@! TF.CreationDate,2019-09-15T12:20:11+02:00
; #@! TF.GenerationSoftware,Kicad,Pcbnew,5.1.2-f72e74a~84~ubuntu18.04.1
; #@! TF.FileFunction,Plated,1,2,PTH
FMAT,2
INCH
T1C0.0157
T2C0.0236
T3C0.0315
T4C0.0394
T5C0.0433
T6C0.0472
T7C0.0512
T8C0.0709
T9C0.0984
T10C0.1811
%
G90
G05
T1
X3.2175Y-4.1575
X4.13Y-3.37
X4.5588Y-3.7167
X4.62Y-3.92
X5.3075Y-2.9075
T2
X4.245Y-3.595
X4.3225Y-3.76
X4.57Y-3.6375
T3
X4.24Y-3.9722
X4.24Y-4.11
X3.87Y-3.2
X3.87Y-3.5
X3.97Y-3.2
X3.97Y-3.5
X4.07Y-3.2
X4.07Y-3.5
X4.17Y-3.2
X4.17Y-3.5
X4.27Y-3.2
X4.27Y-3.5
X4.37Y-3.2
X4.37Y-3.5
X4.47Y-3.2
X4.47Y-3.5
X4.57Y-3.2
X4.57Y-3.5
X4.67Y-3.2
X4.67Y-3.5
X4.77Y-3.2
X4.77Y-3.5
X4.87Y-3.2
X4.87Y-3.5
X4.97Y-3.2
X4.97Y-3.5
X5.07Y-3.2
X5.07Y-3.5
X5.17Y-3.2
X5.17Y-3.5
X3.52Y-3.9422
X3.52Y-4.08
T4
X3.46Y-4.4
X3.46Y-4.5
X3.46Y-4.6
T5
X4.89Y-2.76
X4.89Y-2.86
X4.89Y-2.96
X4.33Y-2.76
X4.33Y-2.86
X4.33Y-2.96
X4.61Y-2.76
X4.61Y-2.86
X4.61Y-2.96
X5.42Y-3.21
X5.52Y-3.21
X5.62Y-3.21
X4.03Y-2.76
X4.03Y-2.86
X4.03Y-2.96
X5.42Y-2.88
X5.52Y-2.88
X5.62Y-2.88
X3.71Y-2.76
X3.71Y-2.86
X3.71Y-2.96
X3.41Y-2.76
X3.41Y-2.86
X3.41Y-2.96
T6
X5.57Y-3.59
X5.57Y-3.69
X5.57Y-3.79
X5.57Y-3.89
X3.36Y-3.63
X3.46Y-3.63
X3.56Y-3.63
X3.66Y-3.63
T7
X3.02Y-3.6145
X3.02Y-4.52
T8
X5.14Y-2.7831
X5.14Y-2.98
X3.18Y-2.406
X3.3769Y-2.406
X3.85Y-4.4231
X3.85Y-4.62
X4.58Y-4.4331
X4.58Y-4.63
X5.976Y-3.38
X5.976Y-3.5769
X5.4831Y-2.406
X5.68Y-2.406
X4.21Y-4.4231
X4.21Y-4.62
X4.95Y-4.4331
X4.95Y-4.63
X3.89Y-3.852
X3.89Y-4.0489
X5.976Y-2.8
X5.976Y-2.9969
X3.7431Y-2.406
X3.94Y-2.406
X4.8931Y-2.406
X5.09Y-2.406
X4.3131Y-2.406
X4.51Y-2.406
X4.8131Y-3.75
X5.01Y-3.75
X4.8131Y-4.09
X5.01Y-4.09
T9
X5.9843Y-4.736
X2.87Y-4.736
X5.9843Y-2.324
X2.87Y-2.324
T10
X2.98Y-2.92
X2.98Y-3.1936
T0
M30
