G04 #@! TF.GenerationSoftware,KiCad,Pcbnew,5.1.2-f72e74a~84~ubuntu18.04.1*
G04 #@! TF.CreationDate,2019-09-15T07:59:56+02:00*
G04 #@! TF.ProjectId,PowerElectrobot,506f7765-7245-46c6-9563-74726f626f74,rev?*
G04 #@! TF.SameCoordinates,Original*
G04 #@! TF.FileFunction,Paste,Bot*
G04 #@! TF.FilePolarity,Positive*
%FSLAX46Y46*%
G04 Gerber Fmt 4.6, Leading zero omitted, Abs format (unit mm)*
G04 Created by KiCad (PCBNEW 5.1.2-f72e74a~84~ubuntu18.04.1) date 2019-09-15 07:59:56*
%MOMM*%
%LPD*%
G04 APERTURE LIST*
%ADD10C,0.100000*%
%ADD11C,1.250000*%
%ADD12R,3.800000X2.000000*%
%ADD13R,1.500000X2.000000*%
%ADD14C,0.600000*%
G04 APERTURE END LIST*
D10*
G36*
X119216704Y-82993004D02*
G01*
X119240973Y-82996604D01*
X119264771Y-83002565D01*
X119287871Y-83010830D01*
X119310049Y-83021320D01*
X119331093Y-83033933D01*
X119350798Y-83048547D01*
X119368977Y-83065023D01*
X119385453Y-83083202D01*
X119400067Y-83102907D01*
X119412680Y-83123951D01*
X119423170Y-83146129D01*
X119431435Y-83169229D01*
X119437396Y-83193027D01*
X119440996Y-83217296D01*
X119442200Y-83241800D01*
X119442200Y-83991800D01*
X119440996Y-84016304D01*
X119437396Y-84040573D01*
X119431435Y-84064371D01*
X119423170Y-84087471D01*
X119412680Y-84109649D01*
X119400067Y-84130693D01*
X119385453Y-84150398D01*
X119368977Y-84168577D01*
X119350798Y-84185053D01*
X119331093Y-84199667D01*
X119310049Y-84212280D01*
X119287871Y-84222770D01*
X119264771Y-84231035D01*
X119240973Y-84236996D01*
X119216704Y-84240596D01*
X119192200Y-84241800D01*
X117942200Y-84241800D01*
X117917696Y-84240596D01*
X117893427Y-84236996D01*
X117869629Y-84231035D01*
X117846529Y-84222770D01*
X117824351Y-84212280D01*
X117803307Y-84199667D01*
X117783602Y-84185053D01*
X117765423Y-84168577D01*
X117748947Y-84150398D01*
X117734333Y-84130693D01*
X117721720Y-84109649D01*
X117711230Y-84087471D01*
X117702965Y-84064371D01*
X117697004Y-84040573D01*
X117693404Y-84016304D01*
X117692200Y-83991800D01*
X117692200Y-83241800D01*
X117693404Y-83217296D01*
X117697004Y-83193027D01*
X117702965Y-83169229D01*
X117711230Y-83146129D01*
X117721720Y-83123951D01*
X117734333Y-83102907D01*
X117748947Y-83083202D01*
X117765423Y-83065023D01*
X117783602Y-83048547D01*
X117803307Y-83033933D01*
X117824351Y-83021320D01*
X117846529Y-83010830D01*
X117869629Y-83002565D01*
X117893427Y-82996604D01*
X117917696Y-82993004D01*
X117942200Y-82991800D01*
X119192200Y-82991800D01*
X119216704Y-82993004D01*
X119216704Y-82993004D01*
G37*
D11*
X118567200Y-83616800D03*
D10*
G36*
X119216704Y-85793004D02*
G01*
X119240973Y-85796604D01*
X119264771Y-85802565D01*
X119287871Y-85810830D01*
X119310049Y-85821320D01*
X119331093Y-85833933D01*
X119350798Y-85848547D01*
X119368977Y-85865023D01*
X119385453Y-85883202D01*
X119400067Y-85902907D01*
X119412680Y-85923951D01*
X119423170Y-85946129D01*
X119431435Y-85969229D01*
X119437396Y-85993027D01*
X119440996Y-86017296D01*
X119442200Y-86041800D01*
X119442200Y-86791800D01*
X119440996Y-86816304D01*
X119437396Y-86840573D01*
X119431435Y-86864371D01*
X119423170Y-86887471D01*
X119412680Y-86909649D01*
X119400067Y-86930693D01*
X119385453Y-86950398D01*
X119368977Y-86968577D01*
X119350798Y-86985053D01*
X119331093Y-86999667D01*
X119310049Y-87012280D01*
X119287871Y-87022770D01*
X119264771Y-87031035D01*
X119240973Y-87036996D01*
X119216704Y-87040596D01*
X119192200Y-87041800D01*
X117942200Y-87041800D01*
X117917696Y-87040596D01*
X117893427Y-87036996D01*
X117869629Y-87031035D01*
X117846529Y-87022770D01*
X117824351Y-87012280D01*
X117803307Y-86999667D01*
X117783602Y-86985053D01*
X117765423Y-86968577D01*
X117748947Y-86950398D01*
X117734333Y-86930693D01*
X117721720Y-86909649D01*
X117711230Y-86887471D01*
X117702965Y-86864371D01*
X117697004Y-86840573D01*
X117693404Y-86816304D01*
X117692200Y-86791800D01*
X117692200Y-86041800D01*
X117693404Y-86017296D01*
X117697004Y-85993027D01*
X117702965Y-85969229D01*
X117711230Y-85946129D01*
X117721720Y-85923951D01*
X117734333Y-85902907D01*
X117748947Y-85883202D01*
X117765423Y-85865023D01*
X117783602Y-85848547D01*
X117803307Y-85833933D01*
X117824351Y-85821320D01*
X117846529Y-85810830D01*
X117869629Y-85802565D01*
X117893427Y-85796604D01*
X117917696Y-85793004D01*
X117942200Y-85791800D01*
X119192200Y-85791800D01*
X119216704Y-85793004D01*
X119216704Y-85793004D01*
G37*
D11*
X118567200Y-86416800D03*
D10*
G36*
X106323504Y-94376204D02*
G01*
X106347773Y-94379804D01*
X106371571Y-94385765D01*
X106394671Y-94394030D01*
X106416849Y-94404520D01*
X106437893Y-94417133D01*
X106457598Y-94431747D01*
X106475777Y-94448223D01*
X106492253Y-94466402D01*
X106506867Y-94486107D01*
X106519480Y-94507151D01*
X106529970Y-94529329D01*
X106538235Y-94552429D01*
X106544196Y-94576227D01*
X106547796Y-94600496D01*
X106549000Y-94625000D01*
X106549000Y-95875000D01*
X106547796Y-95899504D01*
X106544196Y-95923773D01*
X106538235Y-95947571D01*
X106529970Y-95970671D01*
X106519480Y-95992849D01*
X106506867Y-96013893D01*
X106492253Y-96033598D01*
X106475777Y-96051777D01*
X106457598Y-96068253D01*
X106437893Y-96082867D01*
X106416849Y-96095480D01*
X106394671Y-96105970D01*
X106371571Y-96114235D01*
X106347773Y-96120196D01*
X106323504Y-96123796D01*
X106299000Y-96125000D01*
X105549000Y-96125000D01*
X105524496Y-96123796D01*
X105500227Y-96120196D01*
X105476429Y-96114235D01*
X105453329Y-96105970D01*
X105431151Y-96095480D01*
X105410107Y-96082867D01*
X105390402Y-96068253D01*
X105372223Y-96051777D01*
X105355747Y-96033598D01*
X105341133Y-96013893D01*
X105328520Y-95992849D01*
X105318030Y-95970671D01*
X105309765Y-95947571D01*
X105303804Y-95923773D01*
X105300204Y-95899504D01*
X105299000Y-95875000D01*
X105299000Y-94625000D01*
X105300204Y-94600496D01*
X105303804Y-94576227D01*
X105309765Y-94552429D01*
X105318030Y-94529329D01*
X105328520Y-94507151D01*
X105341133Y-94486107D01*
X105355747Y-94466402D01*
X105372223Y-94448223D01*
X105390402Y-94431747D01*
X105410107Y-94417133D01*
X105431151Y-94404520D01*
X105453329Y-94394030D01*
X105476429Y-94385765D01*
X105500227Y-94379804D01*
X105524496Y-94376204D01*
X105549000Y-94375000D01*
X106299000Y-94375000D01*
X106323504Y-94376204D01*
X106323504Y-94376204D01*
G37*
D11*
X105924000Y-95250000D03*
D10*
G36*
X103523504Y-94376204D02*
G01*
X103547773Y-94379804D01*
X103571571Y-94385765D01*
X103594671Y-94394030D01*
X103616849Y-94404520D01*
X103637893Y-94417133D01*
X103657598Y-94431747D01*
X103675777Y-94448223D01*
X103692253Y-94466402D01*
X103706867Y-94486107D01*
X103719480Y-94507151D01*
X103729970Y-94529329D01*
X103738235Y-94552429D01*
X103744196Y-94576227D01*
X103747796Y-94600496D01*
X103749000Y-94625000D01*
X103749000Y-95875000D01*
X103747796Y-95899504D01*
X103744196Y-95923773D01*
X103738235Y-95947571D01*
X103729970Y-95970671D01*
X103719480Y-95992849D01*
X103706867Y-96013893D01*
X103692253Y-96033598D01*
X103675777Y-96051777D01*
X103657598Y-96068253D01*
X103637893Y-96082867D01*
X103616849Y-96095480D01*
X103594671Y-96105970D01*
X103571571Y-96114235D01*
X103547773Y-96120196D01*
X103523504Y-96123796D01*
X103499000Y-96125000D01*
X102749000Y-96125000D01*
X102724496Y-96123796D01*
X102700227Y-96120196D01*
X102676429Y-96114235D01*
X102653329Y-96105970D01*
X102631151Y-96095480D01*
X102610107Y-96082867D01*
X102590402Y-96068253D01*
X102572223Y-96051777D01*
X102555747Y-96033598D01*
X102541133Y-96013893D01*
X102528520Y-95992849D01*
X102518030Y-95970671D01*
X102509765Y-95947571D01*
X102503804Y-95923773D01*
X102500204Y-95899504D01*
X102499000Y-95875000D01*
X102499000Y-94625000D01*
X102500204Y-94600496D01*
X102503804Y-94576227D01*
X102509765Y-94552429D01*
X102518030Y-94529329D01*
X102528520Y-94507151D01*
X102541133Y-94486107D01*
X102555747Y-94466402D01*
X102572223Y-94448223D01*
X102590402Y-94431747D01*
X102610107Y-94417133D01*
X102631151Y-94404520D01*
X102653329Y-94394030D01*
X102676429Y-94385765D01*
X102700227Y-94379804D01*
X102724496Y-94376204D01*
X102749000Y-94375000D01*
X103499000Y-94375000D01*
X103523504Y-94376204D01*
X103523504Y-94376204D01*
G37*
D11*
X103124000Y-95250000D03*
D10*
G36*
X129935504Y-85815404D02*
G01*
X129959773Y-85819004D01*
X129983571Y-85824965D01*
X130006671Y-85833230D01*
X130028849Y-85843720D01*
X130049893Y-85856333D01*
X130069598Y-85870947D01*
X130087777Y-85887423D01*
X130104253Y-85905602D01*
X130118867Y-85925307D01*
X130131480Y-85946351D01*
X130141970Y-85968529D01*
X130150235Y-85991629D01*
X130156196Y-86015427D01*
X130159796Y-86039696D01*
X130161000Y-86064200D01*
X130161000Y-86814200D01*
X130159796Y-86838704D01*
X130156196Y-86862973D01*
X130150235Y-86886771D01*
X130141970Y-86909871D01*
X130131480Y-86932049D01*
X130118867Y-86953093D01*
X130104253Y-86972798D01*
X130087777Y-86990977D01*
X130069598Y-87007453D01*
X130049893Y-87022067D01*
X130028849Y-87034680D01*
X130006671Y-87045170D01*
X129983571Y-87053435D01*
X129959773Y-87059396D01*
X129935504Y-87062996D01*
X129911000Y-87064200D01*
X128661000Y-87064200D01*
X128636496Y-87062996D01*
X128612227Y-87059396D01*
X128588429Y-87053435D01*
X128565329Y-87045170D01*
X128543151Y-87034680D01*
X128522107Y-87022067D01*
X128502402Y-87007453D01*
X128484223Y-86990977D01*
X128467747Y-86972798D01*
X128453133Y-86953093D01*
X128440520Y-86932049D01*
X128430030Y-86909871D01*
X128421765Y-86886771D01*
X128415804Y-86862973D01*
X128412204Y-86838704D01*
X128411000Y-86814200D01*
X128411000Y-86064200D01*
X128412204Y-86039696D01*
X128415804Y-86015427D01*
X128421765Y-85991629D01*
X128430030Y-85968529D01*
X128440520Y-85946351D01*
X128453133Y-85925307D01*
X128467747Y-85905602D01*
X128484223Y-85887423D01*
X128502402Y-85870947D01*
X128522107Y-85856333D01*
X128543151Y-85843720D01*
X128565329Y-85833230D01*
X128588429Y-85824965D01*
X128612227Y-85819004D01*
X128636496Y-85815404D01*
X128661000Y-85814200D01*
X129911000Y-85814200D01*
X129935504Y-85815404D01*
X129935504Y-85815404D01*
G37*
D11*
X129286000Y-86439200D03*
D10*
G36*
X129935504Y-83015404D02*
G01*
X129959773Y-83019004D01*
X129983571Y-83024965D01*
X130006671Y-83033230D01*
X130028849Y-83043720D01*
X130049893Y-83056333D01*
X130069598Y-83070947D01*
X130087777Y-83087423D01*
X130104253Y-83105602D01*
X130118867Y-83125307D01*
X130131480Y-83146351D01*
X130141970Y-83168529D01*
X130150235Y-83191629D01*
X130156196Y-83215427D01*
X130159796Y-83239696D01*
X130161000Y-83264200D01*
X130161000Y-84014200D01*
X130159796Y-84038704D01*
X130156196Y-84062973D01*
X130150235Y-84086771D01*
X130141970Y-84109871D01*
X130131480Y-84132049D01*
X130118867Y-84153093D01*
X130104253Y-84172798D01*
X130087777Y-84190977D01*
X130069598Y-84207453D01*
X130049893Y-84222067D01*
X130028849Y-84234680D01*
X130006671Y-84245170D01*
X129983571Y-84253435D01*
X129959773Y-84259396D01*
X129935504Y-84262996D01*
X129911000Y-84264200D01*
X128661000Y-84264200D01*
X128636496Y-84262996D01*
X128612227Y-84259396D01*
X128588429Y-84253435D01*
X128565329Y-84245170D01*
X128543151Y-84234680D01*
X128522107Y-84222067D01*
X128502402Y-84207453D01*
X128484223Y-84190977D01*
X128467747Y-84172798D01*
X128453133Y-84153093D01*
X128440520Y-84132049D01*
X128430030Y-84109871D01*
X128421765Y-84086771D01*
X128415804Y-84062973D01*
X128412204Y-84038704D01*
X128411000Y-84014200D01*
X128411000Y-83264200D01*
X128412204Y-83239696D01*
X128415804Y-83215427D01*
X128421765Y-83191629D01*
X128430030Y-83168529D01*
X128440520Y-83146351D01*
X128453133Y-83125307D01*
X128467747Y-83105602D01*
X128484223Y-83087423D01*
X128502402Y-83070947D01*
X128522107Y-83056333D01*
X128543151Y-83043720D01*
X128565329Y-83033230D01*
X128588429Y-83024965D01*
X128612227Y-83019004D01*
X128636496Y-83015404D01*
X128661000Y-83014200D01*
X129911000Y-83014200D01*
X129935504Y-83015404D01*
X129935504Y-83015404D01*
G37*
D11*
X129286000Y-83639200D03*
D10*
G36*
X98443504Y-77866204D02*
G01*
X98467773Y-77869804D01*
X98491571Y-77875765D01*
X98514671Y-77884030D01*
X98536849Y-77894520D01*
X98557893Y-77907133D01*
X98577598Y-77921747D01*
X98595777Y-77938223D01*
X98612253Y-77956402D01*
X98626867Y-77976107D01*
X98639480Y-77997151D01*
X98649970Y-78019329D01*
X98658235Y-78042429D01*
X98664196Y-78066227D01*
X98667796Y-78090496D01*
X98669000Y-78115000D01*
X98669000Y-79365000D01*
X98667796Y-79389504D01*
X98664196Y-79413773D01*
X98658235Y-79437571D01*
X98649970Y-79460671D01*
X98639480Y-79482849D01*
X98626867Y-79503893D01*
X98612253Y-79523598D01*
X98595777Y-79541777D01*
X98577598Y-79558253D01*
X98557893Y-79572867D01*
X98536849Y-79585480D01*
X98514671Y-79595970D01*
X98491571Y-79604235D01*
X98467773Y-79610196D01*
X98443504Y-79613796D01*
X98419000Y-79615000D01*
X97669000Y-79615000D01*
X97644496Y-79613796D01*
X97620227Y-79610196D01*
X97596429Y-79604235D01*
X97573329Y-79595970D01*
X97551151Y-79585480D01*
X97530107Y-79572867D01*
X97510402Y-79558253D01*
X97492223Y-79541777D01*
X97475747Y-79523598D01*
X97461133Y-79503893D01*
X97448520Y-79482849D01*
X97438030Y-79460671D01*
X97429765Y-79437571D01*
X97423804Y-79413773D01*
X97420204Y-79389504D01*
X97419000Y-79365000D01*
X97419000Y-78115000D01*
X97420204Y-78090496D01*
X97423804Y-78066227D01*
X97429765Y-78042429D01*
X97438030Y-78019329D01*
X97448520Y-77997151D01*
X97461133Y-77976107D01*
X97475747Y-77956402D01*
X97492223Y-77938223D01*
X97510402Y-77921747D01*
X97530107Y-77907133D01*
X97551151Y-77894520D01*
X97573329Y-77884030D01*
X97596429Y-77875765D01*
X97620227Y-77869804D01*
X97644496Y-77866204D01*
X97669000Y-77865000D01*
X98419000Y-77865000D01*
X98443504Y-77866204D01*
X98443504Y-77866204D01*
G37*
D11*
X98044000Y-78740000D03*
D10*
G36*
X95643504Y-77866204D02*
G01*
X95667773Y-77869804D01*
X95691571Y-77875765D01*
X95714671Y-77884030D01*
X95736849Y-77894520D01*
X95757893Y-77907133D01*
X95777598Y-77921747D01*
X95795777Y-77938223D01*
X95812253Y-77956402D01*
X95826867Y-77976107D01*
X95839480Y-77997151D01*
X95849970Y-78019329D01*
X95858235Y-78042429D01*
X95864196Y-78066227D01*
X95867796Y-78090496D01*
X95869000Y-78115000D01*
X95869000Y-79365000D01*
X95867796Y-79389504D01*
X95864196Y-79413773D01*
X95858235Y-79437571D01*
X95849970Y-79460671D01*
X95839480Y-79482849D01*
X95826867Y-79503893D01*
X95812253Y-79523598D01*
X95795777Y-79541777D01*
X95777598Y-79558253D01*
X95757893Y-79572867D01*
X95736849Y-79585480D01*
X95714671Y-79595970D01*
X95691571Y-79604235D01*
X95667773Y-79610196D01*
X95643504Y-79613796D01*
X95619000Y-79615000D01*
X94869000Y-79615000D01*
X94844496Y-79613796D01*
X94820227Y-79610196D01*
X94796429Y-79604235D01*
X94773329Y-79595970D01*
X94751151Y-79585480D01*
X94730107Y-79572867D01*
X94710402Y-79558253D01*
X94692223Y-79541777D01*
X94675747Y-79523598D01*
X94661133Y-79503893D01*
X94648520Y-79482849D01*
X94638030Y-79460671D01*
X94629765Y-79437571D01*
X94623804Y-79413773D01*
X94620204Y-79389504D01*
X94619000Y-79365000D01*
X94619000Y-78115000D01*
X94620204Y-78090496D01*
X94623804Y-78066227D01*
X94629765Y-78042429D01*
X94638030Y-78019329D01*
X94648520Y-77997151D01*
X94661133Y-77976107D01*
X94675747Y-77956402D01*
X94692223Y-77938223D01*
X94710402Y-77921747D01*
X94730107Y-77907133D01*
X94751151Y-77894520D01*
X94773329Y-77884030D01*
X94796429Y-77875765D01*
X94820227Y-77869804D01*
X94844496Y-77866204D01*
X94869000Y-77865000D01*
X95619000Y-77865000D01*
X95643504Y-77866204D01*
X95643504Y-77866204D01*
G37*
D11*
X95244000Y-78740000D03*
D10*
G36*
X83199504Y-85482204D02*
G01*
X83223773Y-85485804D01*
X83247571Y-85491765D01*
X83270671Y-85500030D01*
X83292849Y-85510520D01*
X83313893Y-85523133D01*
X83333598Y-85537747D01*
X83351777Y-85554223D01*
X83368253Y-85572402D01*
X83382867Y-85592107D01*
X83395480Y-85613151D01*
X83405970Y-85635329D01*
X83414235Y-85658429D01*
X83420196Y-85682227D01*
X83423796Y-85706496D01*
X83425000Y-85731000D01*
X83425000Y-86481000D01*
X83423796Y-86505504D01*
X83420196Y-86529773D01*
X83414235Y-86553571D01*
X83405970Y-86576671D01*
X83395480Y-86598849D01*
X83382867Y-86619893D01*
X83368253Y-86639598D01*
X83351777Y-86657777D01*
X83333598Y-86674253D01*
X83313893Y-86688867D01*
X83292849Y-86701480D01*
X83270671Y-86711970D01*
X83247571Y-86720235D01*
X83223773Y-86726196D01*
X83199504Y-86729796D01*
X83175000Y-86731000D01*
X81925000Y-86731000D01*
X81900496Y-86729796D01*
X81876227Y-86726196D01*
X81852429Y-86720235D01*
X81829329Y-86711970D01*
X81807151Y-86701480D01*
X81786107Y-86688867D01*
X81766402Y-86674253D01*
X81748223Y-86657777D01*
X81731747Y-86639598D01*
X81717133Y-86619893D01*
X81704520Y-86598849D01*
X81694030Y-86576671D01*
X81685765Y-86553571D01*
X81679804Y-86529773D01*
X81676204Y-86505504D01*
X81675000Y-86481000D01*
X81675000Y-85731000D01*
X81676204Y-85706496D01*
X81679804Y-85682227D01*
X81685765Y-85658429D01*
X81694030Y-85635329D01*
X81704520Y-85613151D01*
X81717133Y-85592107D01*
X81731747Y-85572402D01*
X81748223Y-85554223D01*
X81766402Y-85537747D01*
X81786107Y-85523133D01*
X81807151Y-85510520D01*
X81829329Y-85500030D01*
X81852429Y-85491765D01*
X81876227Y-85485804D01*
X81900496Y-85482204D01*
X81925000Y-85481000D01*
X83175000Y-85481000D01*
X83199504Y-85482204D01*
X83199504Y-85482204D01*
G37*
D11*
X82550000Y-86106000D03*
D10*
G36*
X83199504Y-82682204D02*
G01*
X83223773Y-82685804D01*
X83247571Y-82691765D01*
X83270671Y-82700030D01*
X83292849Y-82710520D01*
X83313893Y-82723133D01*
X83333598Y-82737747D01*
X83351777Y-82754223D01*
X83368253Y-82772402D01*
X83382867Y-82792107D01*
X83395480Y-82813151D01*
X83405970Y-82835329D01*
X83414235Y-82858429D01*
X83420196Y-82882227D01*
X83423796Y-82906496D01*
X83425000Y-82931000D01*
X83425000Y-83681000D01*
X83423796Y-83705504D01*
X83420196Y-83729773D01*
X83414235Y-83753571D01*
X83405970Y-83776671D01*
X83395480Y-83798849D01*
X83382867Y-83819893D01*
X83368253Y-83839598D01*
X83351777Y-83857777D01*
X83333598Y-83874253D01*
X83313893Y-83888867D01*
X83292849Y-83901480D01*
X83270671Y-83911970D01*
X83247571Y-83920235D01*
X83223773Y-83926196D01*
X83199504Y-83929796D01*
X83175000Y-83931000D01*
X81925000Y-83931000D01*
X81900496Y-83929796D01*
X81876227Y-83926196D01*
X81852429Y-83920235D01*
X81829329Y-83911970D01*
X81807151Y-83901480D01*
X81786107Y-83888867D01*
X81766402Y-83874253D01*
X81748223Y-83857777D01*
X81731747Y-83839598D01*
X81717133Y-83819893D01*
X81704520Y-83798849D01*
X81694030Y-83776671D01*
X81685765Y-83753571D01*
X81679804Y-83729773D01*
X81676204Y-83705504D01*
X81675000Y-83681000D01*
X81675000Y-82931000D01*
X81676204Y-82906496D01*
X81679804Y-82882227D01*
X81685765Y-82858429D01*
X81694030Y-82835329D01*
X81704520Y-82813151D01*
X81717133Y-82792107D01*
X81731747Y-82772402D01*
X81748223Y-82754223D01*
X81766402Y-82737747D01*
X81786107Y-82723133D01*
X81807151Y-82710520D01*
X81829329Y-82700030D01*
X81852429Y-82691765D01*
X81876227Y-82685804D01*
X81900496Y-82682204D01*
X81925000Y-82681000D01*
X83175000Y-82681000D01*
X83199504Y-82682204D01*
X83199504Y-82682204D01*
G37*
D11*
X82550000Y-83306000D03*
D10*
G36*
X95645504Y-82428204D02*
G01*
X95669773Y-82431804D01*
X95693571Y-82437765D01*
X95716671Y-82446030D01*
X95738849Y-82456520D01*
X95759893Y-82469133D01*
X95779598Y-82483747D01*
X95797777Y-82500223D01*
X95814253Y-82518402D01*
X95828867Y-82538107D01*
X95841480Y-82559151D01*
X95851970Y-82581329D01*
X95860235Y-82604429D01*
X95866196Y-82628227D01*
X95869796Y-82652496D01*
X95871000Y-82677000D01*
X95871000Y-83427000D01*
X95869796Y-83451504D01*
X95866196Y-83475773D01*
X95860235Y-83499571D01*
X95851970Y-83522671D01*
X95841480Y-83544849D01*
X95828867Y-83565893D01*
X95814253Y-83585598D01*
X95797777Y-83603777D01*
X95779598Y-83620253D01*
X95759893Y-83634867D01*
X95738849Y-83647480D01*
X95716671Y-83657970D01*
X95693571Y-83666235D01*
X95669773Y-83672196D01*
X95645504Y-83675796D01*
X95621000Y-83677000D01*
X94371000Y-83677000D01*
X94346496Y-83675796D01*
X94322227Y-83672196D01*
X94298429Y-83666235D01*
X94275329Y-83657970D01*
X94253151Y-83647480D01*
X94232107Y-83634867D01*
X94212402Y-83620253D01*
X94194223Y-83603777D01*
X94177747Y-83585598D01*
X94163133Y-83565893D01*
X94150520Y-83544849D01*
X94140030Y-83522671D01*
X94131765Y-83499571D01*
X94125804Y-83475773D01*
X94122204Y-83451504D01*
X94121000Y-83427000D01*
X94121000Y-82677000D01*
X94122204Y-82652496D01*
X94125804Y-82628227D01*
X94131765Y-82604429D01*
X94140030Y-82581329D01*
X94150520Y-82559151D01*
X94163133Y-82538107D01*
X94177747Y-82518402D01*
X94194223Y-82500223D01*
X94212402Y-82483747D01*
X94232107Y-82469133D01*
X94253151Y-82456520D01*
X94275329Y-82446030D01*
X94298429Y-82437765D01*
X94322227Y-82431804D01*
X94346496Y-82428204D01*
X94371000Y-82427000D01*
X95621000Y-82427000D01*
X95645504Y-82428204D01*
X95645504Y-82428204D01*
G37*
D11*
X94996000Y-83052000D03*
D10*
G36*
X95645504Y-85228204D02*
G01*
X95669773Y-85231804D01*
X95693571Y-85237765D01*
X95716671Y-85246030D01*
X95738849Y-85256520D01*
X95759893Y-85269133D01*
X95779598Y-85283747D01*
X95797777Y-85300223D01*
X95814253Y-85318402D01*
X95828867Y-85338107D01*
X95841480Y-85359151D01*
X95851970Y-85381329D01*
X95860235Y-85404429D01*
X95866196Y-85428227D01*
X95869796Y-85452496D01*
X95871000Y-85477000D01*
X95871000Y-86227000D01*
X95869796Y-86251504D01*
X95866196Y-86275773D01*
X95860235Y-86299571D01*
X95851970Y-86322671D01*
X95841480Y-86344849D01*
X95828867Y-86365893D01*
X95814253Y-86385598D01*
X95797777Y-86403777D01*
X95779598Y-86420253D01*
X95759893Y-86434867D01*
X95738849Y-86447480D01*
X95716671Y-86457970D01*
X95693571Y-86466235D01*
X95669773Y-86472196D01*
X95645504Y-86475796D01*
X95621000Y-86477000D01*
X94371000Y-86477000D01*
X94346496Y-86475796D01*
X94322227Y-86472196D01*
X94298429Y-86466235D01*
X94275329Y-86457970D01*
X94253151Y-86447480D01*
X94232107Y-86434867D01*
X94212402Y-86420253D01*
X94194223Y-86403777D01*
X94177747Y-86385598D01*
X94163133Y-86365893D01*
X94150520Y-86344849D01*
X94140030Y-86322671D01*
X94131765Y-86299571D01*
X94125804Y-86275773D01*
X94122204Y-86251504D01*
X94121000Y-86227000D01*
X94121000Y-85477000D01*
X94122204Y-85452496D01*
X94125804Y-85428227D01*
X94131765Y-85404429D01*
X94140030Y-85381329D01*
X94150520Y-85359151D01*
X94163133Y-85338107D01*
X94177747Y-85318402D01*
X94194223Y-85300223D01*
X94212402Y-85283747D01*
X94232107Y-85269133D01*
X94253151Y-85256520D01*
X94275329Y-85246030D01*
X94298429Y-85237765D01*
X94322227Y-85231804D01*
X94346496Y-85228204D01*
X94371000Y-85227000D01*
X95621000Y-85227000D01*
X95645504Y-85228204D01*
X95645504Y-85228204D01*
G37*
D11*
X94996000Y-85852000D03*
D10*
G36*
X111393504Y-93356204D02*
G01*
X111417773Y-93359804D01*
X111441571Y-93365765D01*
X111464671Y-93374030D01*
X111486849Y-93384520D01*
X111507893Y-93397133D01*
X111527598Y-93411747D01*
X111545777Y-93428223D01*
X111562253Y-93446402D01*
X111576867Y-93466107D01*
X111589480Y-93487151D01*
X111599970Y-93509329D01*
X111608235Y-93532429D01*
X111614196Y-93556227D01*
X111617796Y-93580496D01*
X111619000Y-93605000D01*
X111619000Y-94355000D01*
X111617796Y-94379504D01*
X111614196Y-94403773D01*
X111608235Y-94427571D01*
X111599970Y-94450671D01*
X111589480Y-94472849D01*
X111576867Y-94493893D01*
X111562253Y-94513598D01*
X111545777Y-94531777D01*
X111527598Y-94548253D01*
X111507893Y-94562867D01*
X111486849Y-94575480D01*
X111464671Y-94585970D01*
X111441571Y-94594235D01*
X111417773Y-94600196D01*
X111393504Y-94603796D01*
X111369000Y-94605000D01*
X110119000Y-94605000D01*
X110094496Y-94603796D01*
X110070227Y-94600196D01*
X110046429Y-94594235D01*
X110023329Y-94585970D01*
X110001151Y-94575480D01*
X109980107Y-94562867D01*
X109960402Y-94548253D01*
X109942223Y-94531777D01*
X109925747Y-94513598D01*
X109911133Y-94493893D01*
X109898520Y-94472849D01*
X109888030Y-94450671D01*
X109879765Y-94427571D01*
X109873804Y-94403773D01*
X109870204Y-94379504D01*
X109869000Y-94355000D01*
X109869000Y-93605000D01*
X109870204Y-93580496D01*
X109873804Y-93556227D01*
X109879765Y-93532429D01*
X109888030Y-93509329D01*
X109898520Y-93487151D01*
X109911133Y-93466107D01*
X109925747Y-93446402D01*
X109942223Y-93428223D01*
X109960402Y-93411747D01*
X109980107Y-93397133D01*
X110001151Y-93384520D01*
X110023329Y-93374030D01*
X110046429Y-93365765D01*
X110070227Y-93359804D01*
X110094496Y-93356204D01*
X110119000Y-93355000D01*
X111369000Y-93355000D01*
X111393504Y-93356204D01*
X111393504Y-93356204D01*
G37*
D11*
X110744000Y-93980000D03*
D10*
G36*
X111393504Y-90556204D02*
G01*
X111417773Y-90559804D01*
X111441571Y-90565765D01*
X111464671Y-90574030D01*
X111486849Y-90584520D01*
X111507893Y-90597133D01*
X111527598Y-90611747D01*
X111545777Y-90628223D01*
X111562253Y-90646402D01*
X111576867Y-90666107D01*
X111589480Y-90687151D01*
X111599970Y-90709329D01*
X111608235Y-90732429D01*
X111614196Y-90756227D01*
X111617796Y-90780496D01*
X111619000Y-90805000D01*
X111619000Y-91555000D01*
X111617796Y-91579504D01*
X111614196Y-91603773D01*
X111608235Y-91627571D01*
X111599970Y-91650671D01*
X111589480Y-91672849D01*
X111576867Y-91693893D01*
X111562253Y-91713598D01*
X111545777Y-91731777D01*
X111527598Y-91748253D01*
X111507893Y-91762867D01*
X111486849Y-91775480D01*
X111464671Y-91785970D01*
X111441571Y-91794235D01*
X111417773Y-91800196D01*
X111393504Y-91803796D01*
X111369000Y-91805000D01*
X110119000Y-91805000D01*
X110094496Y-91803796D01*
X110070227Y-91800196D01*
X110046429Y-91794235D01*
X110023329Y-91785970D01*
X110001151Y-91775480D01*
X109980107Y-91762867D01*
X109960402Y-91748253D01*
X109942223Y-91731777D01*
X109925747Y-91713598D01*
X109911133Y-91693893D01*
X109898520Y-91672849D01*
X109888030Y-91650671D01*
X109879765Y-91627571D01*
X109873804Y-91603773D01*
X109870204Y-91579504D01*
X109869000Y-91555000D01*
X109869000Y-90805000D01*
X109870204Y-90780496D01*
X109873804Y-90756227D01*
X109879765Y-90732429D01*
X109888030Y-90709329D01*
X109898520Y-90687151D01*
X109911133Y-90666107D01*
X109925747Y-90646402D01*
X109942223Y-90628223D01*
X109960402Y-90611747D01*
X109980107Y-90597133D01*
X110001151Y-90584520D01*
X110023329Y-90574030D01*
X110046429Y-90565765D01*
X110070227Y-90559804D01*
X110094496Y-90556204D01*
X110119000Y-90555000D01*
X111369000Y-90555000D01*
X111393504Y-90556204D01*
X111393504Y-90556204D01*
G37*
D11*
X110744000Y-91180000D03*
D10*
G36*
X111393504Y-99198204D02*
G01*
X111417773Y-99201804D01*
X111441571Y-99207765D01*
X111464671Y-99216030D01*
X111486849Y-99226520D01*
X111507893Y-99239133D01*
X111527598Y-99253747D01*
X111545777Y-99270223D01*
X111562253Y-99288402D01*
X111576867Y-99308107D01*
X111589480Y-99329151D01*
X111599970Y-99351329D01*
X111608235Y-99374429D01*
X111614196Y-99398227D01*
X111617796Y-99422496D01*
X111619000Y-99447000D01*
X111619000Y-100197000D01*
X111617796Y-100221504D01*
X111614196Y-100245773D01*
X111608235Y-100269571D01*
X111599970Y-100292671D01*
X111589480Y-100314849D01*
X111576867Y-100335893D01*
X111562253Y-100355598D01*
X111545777Y-100373777D01*
X111527598Y-100390253D01*
X111507893Y-100404867D01*
X111486849Y-100417480D01*
X111464671Y-100427970D01*
X111441571Y-100436235D01*
X111417773Y-100442196D01*
X111393504Y-100445796D01*
X111369000Y-100447000D01*
X110119000Y-100447000D01*
X110094496Y-100445796D01*
X110070227Y-100442196D01*
X110046429Y-100436235D01*
X110023329Y-100427970D01*
X110001151Y-100417480D01*
X109980107Y-100404867D01*
X109960402Y-100390253D01*
X109942223Y-100373777D01*
X109925747Y-100355598D01*
X109911133Y-100335893D01*
X109898520Y-100314849D01*
X109888030Y-100292671D01*
X109879765Y-100269571D01*
X109873804Y-100245773D01*
X109870204Y-100221504D01*
X109869000Y-100197000D01*
X109869000Y-99447000D01*
X109870204Y-99422496D01*
X109873804Y-99398227D01*
X109879765Y-99374429D01*
X109888030Y-99351329D01*
X109898520Y-99329151D01*
X109911133Y-99308107D01*
X109925747Y-99288402D01*
X109942223Y-99270223D01*
X109960402Y-99253747D01*
X109980107Y-99239133D01*
X110001151Y-99226520D01*
X110023329Y-99216030D01*
X110046429Y-99207765D01*
X110070227Y-99201804D01*
X110094496Y-99198204D01*
X110119000Y-99197000D01*
X111369000Y-99197000D01*
X111393504Y-99198204D01*
X111393504Y-99198204D01*
G37*
D11*
X110744000Y-99822000D03*
D10*
G36*
X111393504Y-96398204D02*
G01*
X111417773Y-96401804D01*
X111441571Y-96407765D01*
X111464671Y-96416030D01*
X111486849Y-96426520D01*
X111507893Y-96439133D01*
X111527598Y-96453747D01*
X111545777Y-96470223D01*
X111562253Y-96488402D01*
X111576867Y-96508107D01*
X111589480Y-96529151D01*
X111599970Y-96551329D01*
X111608235Y-96574429D01*
X111614196Y-96598227D01*
X111617796Y-96622496D01*
X111619000Y-96647000D01*
X111619000Y-97397000D01*
X111617796Y-97421504D01*
X111614196Y-97445773D01*
X111608235Y-97469571D01*
X111599970Y-97492671D01*
X111589480Y-97514849D01*
X111576867Y-97535893D01*
X111562253Y-97555598D01*
X111545777Y-97573777D01*
X111527598Y-97590253D01*
X111507893Y-97604867D01*
X111486849Y-97617480D01*
X111464671Y-97627970D01*
X111441571Y-97636235D01*
X111417773Y-97642196D01*
X111393504Y-97645796D01*
X111369000Y-97647000D01*
X110119000Y-97647000D01*
X110094496Y-97645796D01*
X110070227Y-97642196D01*
X110046429Y-97636235D01*
X110023329Y-97627970D01*
X110001151Y-97617480D01*
X109980107Y-97604867D01*
X109960402Y-97590253D01*
X109942223Y-97573777D01*
X109925747Y-97555598D01*
X109911133Y-97535893D01*
X109898520Y-97514849D01*
X109888030Y-97492671D01*
X109879765Y-97469571D01*
X109873804Y-97445773D01*
X109870204Y-97421504D01*
X109869000Y-97397000D01*
X109869000Y-96647000D01*
X109870204Y-96622496D01*
X109873804Y-96598227D01*
X109879765Y-96574429D01*
X109888030Y-96551329D01*
X109898520Y-96529151D01*
X109911133Y-96508107D01*
X109925747Y-96488402D01*
X109942223Y-96470223D01*
X109960402Y-96453747D01*
X109980107Y-96439133D01*
X110001151Y-96426520D01*
X110023329Y-96416030D01*
X110046429Y-96407765D01*
X110070227Y-96401804D01*
X110094496Y-96398204D01*
X110119000Y-96397000D01*
X111369000Y-96397000D01*
X111393504Y-96398204D01*
X111393504Y-96398204D01*
G37*
D11*
X110744000Y-97022000D03*
D10*
G36*
X111393504Y-104284204D02*
G01*
X111417773Y-104287804D01*
X111441571Y-104293765D01*
X111464671Y-104302030D01*
X111486849Y-104312520D01*
X111507893Y-104325133D01*
X111527598Y-104339747D01*
X111545777Y-104356223D01*
X111562253Y-104374402D01*
X111576867Y-104394107D01*
X111589480Y-104415151D01*
X111599970Y-104437329D01*
X111608235Y-104460429D01*
X111614196Y-104484227D01*
X111617796Y-104508496D01*
X111619000Y-104533000D01*
X111619000Y-105283000D01*
X111617796Y-105307504D01*
X111614196Y-105331773D01*
X111608235Y-105355571D01*
X111599970Y-105378671D01*
X111589480Y-105400849D01*
X111576867Y-105421893D01*
X111562253Y-105441598D01*
X111545777Y-105459777D01*
X111527598Y-105476253D01*
X111507893Y-105490867D01*
X111486849Y-105503480D01*
X111464671Y-105513970D01*
X111441571Y-105522235D01*
X111417773Y-105528196D01*
X111393504Y-105531796D01*
X111369000Y-105533000D01*
X110119000Y-105533000D01*
X110094496Y-105531796D01*
X110070227Y-105528196D01*
X110046429Y-105522235D01*
X110023329Y-105513970D01*
X110001151Y-105503480D01*
X109980107Y-105490867D01*
X109960402Y-105476253D01*
X109942223Y-105459777D01*
X109925747Y-105441598D01*
X109911133Y-105421893D01*
X109898520Y-105400849D01*
X109888030Y-105378671D01*
X109879765Y-105355571D01*
X109873804Y-105331773D01*
X109870204Y-105307504D01*
X109869000Y-105283000D01*
X109869000Y-104533000D01*
X109870204Y-104508496D01*
X109873804Y-104484227D01*
X109879765Y-104460429D01*
X109888030Y-104437329D01*
X109898520Y-104415151D01*
X109911133Y-104394107D01*
X109925747Y-104374402D01*
X109942223Y-104356223D01*
X109960402Y-104339747D01*
X109980107Y-104325133D01*
X110001151Y-104312520D01*
X110023329Y-104302030D01*
X110046429Y-104293765D01*
X110070227Y-104287804D01*
X110094496Y-104284204D01*
X110119000Y-104283000D01*
X111369000Y-104283000D01*
X111393504Y-104284204D01*
X111393504Y-104284204D01*
G37*
D11*
X110744000Y-104908000D03*
D10*
G36*
X111393504Y-101484204D02*
G01*
X111417773Y-101487804D01*
X111441571Y-101493765D01*
X111464671Y-101502030D01*
X111486849Y-101512520D01*
X111507893Y-101525133D01*
X111527598Y-101539747D01*
X111545777Y-101556223D01*
X111562253Y-101574402D01*
X111576867Y-101594107D01*
X111589480Y-101615151D01*
X111599970Y-101637329D01*
X111608235Y-101660429D01*
X111614196Y-101684227D01*
X111617796Y-101708496D01*
X111619000Y-101733000D01*
X111619000Y-102483000D01*
X111617796Y-102507504D01*
X111614196Y-102531773D01*
X111608235Y-102555571D01*
X111599970Y-102578671D01*
X111589480Y-102600849D01*
X111576867Y-102621893D01*
X111562253Y-102641598D01*
X111545777Y-102659777D01*
X111527598Y-102676253D01*
X111507893Y-102690867D01*
X111486849Y-102703480D01*
X111464671Y-102713970D01*
X111441571Y-102722235D01*
X111417773Y-102728196D01*
X111393504Y-102731796D01*
X111369000Y-102733000D01*
X110119000Y-102733000D01*
X110094496Y-102731796D01*
X110070227Y-102728196D01*
X110046429Y-102722235D01*
X110023329Y-102713970D01*
X110001151Y-102703480D01*
X109980107Y-102690867D01*
X109960402Y-102676253D01*
X109942223Y-102659777D01*
X109925747Y-102641598D01*
X109911133Y-102621893D01*
X109898520Y-102600849D01*
X109888030Y-102578671D01*
X109879765Y-102555571D01*
X109873804Y-102531773D01*
X109870204Y-102507504D01*
X109869000Y-102483000D01*
X109869000Y-101733000D01*
X109870204Y-101708496D01*
X109873804Y-101684227D01*
X109879765Y-101660429D01*
X109888030Y-101637329D01*
X109898520Y-101615151D01*
X109911133Y-101594107D01*
X109925747Y-101574402D01*
X109942223Y-101556223D01*
X109960402Y-101539747D01*
X109980107Y-101525133D01*
X110001151Y-101512520D01*
X110023329Y-101502030D01*
X110046429Y-101493765D01*
X110070227Y-101487804D01*
X110094496Y-101484204D01*
X110119000Y-101483000D01*
X111369000Y-101483000D01*
X111393504Y-101484204D01*
X111393504Y-101484204D01*
G37*
D11*
X110744000Y-102108000D03*
D10*
G36*
X111137504Y-107330204D02*
G01*
X111161773Y-107333804D01*
X111185571Y-107339765D01*
X111208671Y-107348030D01*
X111230849Y-107358520D01*
X111251893Y-107371133D01*
X111271598Y-107385747D01*
X111289777Y-107402223D01*
X111306253Y-107420402D01*
X111320867Y-107440107D01*
X111333480Y-107461151D01*
X111343970Y-107483329D01*
X111352235Y-107506429D01*
X111358196Y-107530227D01*
X111361796Y-107554496D01*
X111363000Y-107579000D01*
X111363000Y-108829000D01*
X111361796Y-108853504D01*
X111358196Y-108877773D01*
X111352235Y-108901571D01*
X111343970Y-108924671D01*
X111333480Y-108946849D01*
X111320867Y-108967893D01*
X111306253Y-108987598D01*
X111289777Y-109005777D01*
X111271598Y-109022253D01*
X111251893Y-109036867D01*
X111230849Y-109049480D01*
X111208671Y-109059970D01*
X111185571Y-109068235D01*
X111161773Y-109074196D01*
X111137504Y-109077796D01*
X111113000Y-109079000D01*
X110363000Y-109079000D01*
X110338496Y-109077796D01*
X110314227Y-109074196D01*
X110290429Y-109068235D01*
X110267329Y-109059970D01*
X110245151Y-109049480D01*
X110224107Y-109036867D01*
X110204402Y-109022253D01*
X110186223Y-109005777D01*
X110169747Y-108987598D01*
X110155133Y-108967893D01*
X110142520Y-108946849D01*
X110132030Y-108924671D01*
X110123765Y-108901571D01*
X110117804Y-108877773D01*
X110114204Y-108853504D01*
X110113000Y-108829000D01*
X110113000Y-107579000D01*
X110114204Y-107554496D01*
X110117804Y-107530227D01*
X110123765Y-107506429D01*
X110132030Y-107483329D01*
X110142520Y-107461151D01*
X110155133Y-107440107D01*
X110169747Y-107420402D01*
X110186223Y-107402223D01*
X110204402Y-107385747D01*
X110224107Y-107371133D01*
X110245151Y-107358520D01*
X110267329Y-107348030D01*
X110290429Y-107339765D01*
X110314227Y-107333804D01*
X110338496Y-107330204D01*
X110363000Y-107329000D01*
X111113000Y-107329000D01*
X111137504Y-107330204D01*
X111137504Y-107330204D01*
G37*
D11*
X110738000Y-108204000D03*
D10*
G36*
X113937504Y-107330204D02*
G01*
X113961773Y-107333804D01*
X113985571Y-107339765D01*
X114008671Y-107348030D01*
X114030849Y-107358520D01*
X114051893Y-107371133D01*
X114071598Y-107385747D01*
X114089777Y-107402223D01*
X114106253Y-107420402D01*
X114120867Y-107440107D01*
X114133480Y-107461151D01*
X114143970Y-107483329D01*
X114152235Y-107506429D01*
X114158196Y-107530227D01*
X114161796Y-107554496D01*
X114163000Y-107579000D01*
X114163000Y-108829000D01*
X114161796Y-108853504D01*
X114158196Y-108877773D01*
X114152235Y-108901571D01*
X114143970Y-108924671D01*
X114133480Y-108946849D01*
X114120867Y-108967893D01*
X114106253Y-108987598D01*
X114089777Y-109005777D01*
X114071598Y-109022253D01*
X114051893Y-109036867D01*
X114030849Y-109049480D01*
X114008671Y-109059970D01*
X113985571Y-109068235D01*
X113961773Y-109074196D01*
X113937504Y-109077796D01*
X113913000Y-109079000D01*
X113163000Y-109079000D01*
X113138496Y-109077796D01*
X113114227Y-109074196D01*
X113090429Y-109068235D01*
X113067329Y-109059970D01*
X113045151Y-109049480D01*
X113024107Y-109036867D01*
X113004402Y-109022253D01*
X112986223Y-109005777D01*
X112969747Y-108987598D01*
X112955133Y-108967893D01*
X112942520Y-108946849D01*
X112932030Y-108924671D01*
X112923765Y-108901571D01*
X112917804Y-108877773D01*
X112914204Y-108853504D01*
X112913000Y-108829000D01*
X112913000Y-107579000D01*
X112914204Y-107554496D01*
X112917804Y-107530227D01*
X112923765Y-107506429D01*
X112932030Y-107483329D01*
X112942520Y-107461151D01*
X112955133Y-107440107D01*
X112969747Y-107420402D01*
X112986223Y-107402223D01*
X113004402Y-107385747D01*
X113024107Y-107371133D01*
X113045151Y-107358520D01*
X113067329Y-107348030D01*
X113090429Y-107339765D01*
X113114227Y-107333804D01*
X113138496Y-107330204D01*
X113163000Y-107329000D01*
X113913000Y-107329000D01*
X113937504Y-107330204D01*
X113937504Y-107330204D01*
G37*
D11*
X113538000Y-108204000D03*
D10*
G36*
X84342504Y-107450204D02*
G01*
X84366773Y-107453804D01*
X84390571Y-107459765D01*
X84413671Y-107468030D01*
X84435849Y-107478520D01*
X84456893Y-107491133D01*
X84476598Y-107505747D01*
X84494777Y-107522223D01*
X84511253Y-107540402D01*
X84525867Y-107560107D01*
X84538480Y-107581151D01*
X84548970Y-107603329D01*
X84557235Y-107626429D01*
X84563196Y-107650227D01*
X84566796Y-107674496D01*
X84568000Y-107699000D01*
X84568000Y-108449000D01*
X84566796Y-108473504D01*
X84563196Y-108497773D01*
X84557235Y-108521571D01*
X84548970Y-108544671D01*
X84538480Y-108566849D01*
X84525867Y-108587893D01*
X84511253Y-108607598D01*
X84494777Y-108625777D01*
X84476598Y-108642253D01*
X84456893Y-108656867D01*
X84435849Y-108669480D01*
X84413671Y-108679970D01*
X84390571Y-108688235D01*
X84366773Y-108694196D01*
X84342504Y-108697796D01*
X84318000Y-108699000D01*
X83068000Y-108699000D01*
X83043496Y-108697796D01*
X83019227Y-108694196D01*
X82995429Y-108688235D01*
X82972329Y-108679970D01*
X82950151Y-108669480D01*
X82929107Y-108656867D01*
X82909402Y-108642253D01*
X82891223Y-108625777D01*
X82874747Y-108607598D01*
X82860133Y-108587893D01*
X82847520Y-108566849D01*
X82837030Y-108544671D01*
X82828765Y-108521571D01*
X82822804Y-108497773D01*
X82819204Y-108473504D01*
X82818000Y-108449000D01*
X82818000Y-107699000D01*
X82819204Y-107674496D01*
X82822804Y-107650227D01*
X82828765Y-107626429D01*
X82837030Y-107603329D01*
X82847520Y-107581151D01*
X82860133Y-107560107D01*
X82874747Y-107540402D01*
X82891223Y-107522223D01*
X82909402Y-107505747D01*
X82929107Y-107491133D01*
X82950151Y-107478520D01*
X82972329Y-107468030D01*
X82995429Y-107459765D01*
X83019227Y-107453804D01*
X83043496Y-107450204D01*
X83068000Y-107449000D01*
X84318000Y-107449000D01*
X84342504Y-107450204D01*
X84342504Y-107450204D01*
G37*
D11*
X83693000Y-108074000D03*
D10*
G36*
X84342504Y-110250204D02*
G01*
X84366773Y-110253804D01*
X84390571Y-110259765D01*
X84413671Y-110268030D01*
X84435849Y-110278520D01*
X84456893Y-110291133D01*
X84476598Y-110305747D01*
X84494777Y-110322223D01*
X84511253Y-110340402D01*
X84525867Y-110360107D01*
X84538480Y-110381151D01*
X84548970Y-110403329D01*
X84557235Y-110426429D01*
X84563196Y-110450227D01*
X84566796Y-110474496D01*
X84568000Y-110499000D01*
X84568000Y-111249000D01*
X84566796Y-111273504D01*
X84563196Y-111297773D01*
X84557235Y-111321571D01*
X84548970Y-111344671D01*
X84538480Y-111366849D01*
X84525867Y-111387893D01*
X84511253Y-111407598D01*
X84494777Y-111425777D01*
X84476598Y-111442253D01*
X84456893Y-111456867D01*
X84435849Y-111469480D01*
X84413671Y-111479970D01*
X84390571Y-111488235D01*
X84366773Y-111494196D01*
X84342504Y-111497796D01*
X84318000Y-111499000D01*
X83068000Y-111499000D01*
X83043496Y-111497796D01*
X83019227Y-111494196D01*
X82995429Y-111488235D01*
X82972329Y-111479970D01*
X82950151Y-111469480D01*
X82929107Y-111456867D01*
X82909402Y-111442253D01*
X82891223Y-111425777D01*
X82874747Y-111407598D01*
X82860133Y-111387893D01*
X82847520Y-111366849D01*
X82837030Y-111344671D01*
X82828765Y-111321571D01*
X82822804Y-111297773D01*
X82819204Y-111273504D01*
X82818000Y-111249000D01*
X82818000Y-110499000D01*
X82819204Y-110474496D01*
X82822804Y-110450227D01*
X82828765Y-110426429D01*
X82837030Y-110403329D01*
X82847520Y-110381151D01*
X82860133Y-110360107D01*
X82874747Y-110340402D01*
X82891223Y-110322223D01*
X82909402Y-110305747D01*
X82929107Y-110291133D01*
X82950151Y-110278520D01*
X82972329Y-110268030D01*
X82995429Y-110259765D01*
X83019227Y-110253804D01*
X83043496Y-110250204D01*
X83068000Y-110249000D01*
X84318000Y-110249000D01*
X84342504Y-110250204D01*
X84342504Y-110250204D01*
G37*
D11*
X83693000Y-110874000D03*
D10*
G36*
X79647504Y-103520204D02*
G01*
X79671773Y-103523804D01*
X79695571Y-103529765D01*
X79718671Y-103538030D01*
X79740849Y-103548520D01*
X79761893Y-103561133D01*
X79781598Y-103575747D01*
X79799777Y-103592223D01*
X79816253Y-103610402D01*
X79830867Y-103630107D01*
X79843480Y-103651151D01*
X79853970Y-103673329D01*
X79862235Y-103696429D01*
X79868196Y-103720227D01*
X79871796Y-103744496D01*
X79873000Y-103769000D01*
X79873000Y-105019000D01*
X79871796Y-105043504D01*
X79868196Y-105067773D01*
X79862235Y-105091571D01*
X79853970Y-105114671D01*
X79843480Y-105136849D01*
X79830867Y-105157893D01*
X79816253Y-105177598D01*
X79799777Y-105195777D01*
X79781598Y-105212253D01*
X79761893Y-105226867D01*
X79740849Y-105239480D01*
X79718671Y-105249970D01*
X79695571Y-105258235D01*
X79671773Y-105264196D01*
X79647504Y-105267796D01*
X79623000Y-105269000D01*
X78873000Y-105269000D01*
X78848496Y-105267796D01*
X78824227Y-105264196D01*
X78800429Y-105258235D01*
X78777329Y-105249970D01*
X78755151Y-105239480D01*
X78734107Y-105226867D01*
X78714402Y-105212253D01*
X78696223Y-105195777D01*
X78679747Y-105177598D01*
X78665133Y-105157893D01*
X78652520Y-105136849D01*
X78642030Y-105114671D01*
X78633765Y-105091571D01*
X78627804Y-105067773D01*
X78624204Y-105043504D01*
X78623000Y-105019000D01*
X78623000Y-103769000D01*
X78624204Y-103744496D01*
X78627804Y-103720227D01*
X78633765Y-103696429D01*
X78642030Y-103673329D01*
X78652520Y-103651151D01*
X78665133Y-103630107D01*
X78679747Y-103610402D01*
X78696223Y-103592223D01*
X78714402Y-103575747D01*
X78734107Y-103561133D01*
X78755151Y-103548520D01*
X78777329Y-103538030D01*
X78800429Y-103529765D01*
X78824227Y-103523804D01*
X78848496Y-103520204D01*
X78873000Y-103519000D01*
X79623000Y-103519000D01*
X79647504Y-103520204D01*
X79647504Y-103520204D01*
G37*
D11*
X79248000Y-104394000D03*
D10*
G36*
X76847504Y-103520204D02*
G01*
X76871773Y-103523804D01*
X76895571Y-103529765D01*
X76918671Y-103538030D01*
X76940849Y-103548520D01*
X76961893Y-103561133D01*
X76981598Y-103575747D01*
X76999777Y-103592223D01*
X77016253Y-103610402D01*
X77030867Y-103630107D01*
X77043480Y-103651151D01*
X77053970Y-103673329D01*
X77062235Y-103696429D01*
X77068196Y-103720227D01*
X77071796Y-103744496D01*
X77073000Y-103769000D01*
X77073000Y-105019000D01*
X77071796Y-105043504D01*
X77068196Y-105067773D01*
X77062235Y-105091571D01*
X77053970Y-105114671D01*
X77043480Y-105136849D01*
X77030867Y-105157893D01*
X77016253Y-105177598D01*
X76999777Y-105195777D01*
X76981598Y-105212253D01*
X76961893Y-105226867D01*
X76940849Y-105239480D01*
X76918671Y-105249970D01*
X76895571Y-105258235D01*
X76871773Y-105264196D01*
X76847504Y-105267796D01*
X76823000Y-105269000D01*
X76073000Y-105269000D01*
X76048496Y-105267796D01*
X76024227Y-105264196D01*
X76000429Y-105258235D01*
X75977329Y-105249970D01*
X75955151Y-105239480D01*
X75934107Y-105226867D01*
X75914402Y-105212253D01*
X75896223Y-105195777D01*
X75879747Y-105177598D01*
X75865133Y-105157893D01*
X75852520Y-105136849D01*
X75842030Y-105114671D01*
X75833765Y-105091571D01*
X75827804Y-105067773D01*
X75824204Y-105043504D01*
X75823000Y-105019000D01*
X75823000Y-103769000D01*
X75824204Y-103744496D01*
X75827804Y-103720227D01*
X75833765Y-103696429D01*
X75842030Y-103673329D01*
X75852520Y-103651151D01*
X75865133Y-103630107D01*
X75879747Y-103610402D01*
X75896223Y-103592223D01*
X75914402Y-103575747D01*
X75934107Y-103561133D01*
X75955151Y-103548520D01*
X75977329Y-103538030D01*
X76000429Y-103529765D01*
X76024227Y-103523804D01*
X76048496Y-103520204D01*
X76073000Y-103519000D01*
X76823000Y-103519000D01*
X76847504Y-103520204D01*
X76847504Y-103520204D01*
G37*
D11*
X76448000Y-104394000D03*
D10*
G36*
X97908505Y-91635205D02*
G01*
X97932774Y-91638805D01*
X97956572Y-91644766D01*
X97979672Y-91653031D01*
X98001850Y-91663521D01*
X98022894Y-91676134D01*
X98042599Y-91690748D01*
X98060778Y-91707224D01*
X98077254Y-91725403D01*
X98091868Y-91745108D01*
X98104481Y-91766152D01*
X98114971Y-91788330D01*
X98123236Y-91811430D01*
X98129197Y-91835228D01*
X98132797Y-91859497D01*
X98134001Y-91884001D01*
X98134001Y-93134001D01*
X98132797Y-93158505D01*
X98129197Y-93182774D01*
X98123236Y-93206572D01*
X98114971Y-93229672D01*
X98104481Y-93251850D01*
X98091868Y-93272894D01*
X98077254Y-93292599D01*
X98060778Y-93310778D01*
X98042599Y-93327254D01*
X98022894Y-93341868D01*
X98001850Y-93354481D01*
X97979672Y-93364971D01*
X97956572Y-93373236D01*
X97932774Y-93379197D01*
X97908505Y-93382797D01*
X97884001Y-93384001D01*
X97134001Y-93384001D01*
X97109497Y-93382797D01*
X97085228Y-93379197D01*
X97061430Y-93373236D01*
X97038330Y-93364971D01*
X97016152Y-93354481D01*
X96995108Y-93341868D01*
X96975403Y-93327254D01*
X96957224Y-93310778D01*
X96940748Y-93292599D01*
X96926134Y-93272894D01*
X96913521Y-93251850D01*
X96903031Y-93229672D01*
X96894766Y-93206572D01*
X96888805Y-93182774D01*
X96885205Y-93158505D01*
X96884001Y-93134001D01*
X96884001Y-91884001D01*
X96885205Y-91859497D01*
X96888805Y-91835228D01*
X96894766Y-91811430D01*
X96903031Y-91788330D01*
X96913521Y-91766152D01*
X96926134Y-91745108D01*
X96940748Y-91725403D01*
X96957224Y-91707224D01*
X96975403Y-91690748D01*
X96995108Y-91676134D01*
X97016152Y-91663521D01*
X97038330Y-91653031D01*
X97061430Y-91644766D01*
X97085228Y-91638805D01*
X97109497Y-91635205D01*
X97134001Y-91634001D01*
X97884001Y-91634001D01*
X97908505Y-91635205D01*
X97908505Y-91635205D01*
G37*
D11*
X97509001Y-92509001D03*
D10*
G36*
X100708505Y-91635205D02*
G01*
X100732774Y-91638805D01*
X100756572Y-91644766D01*
X100779672Y-91653031D01*
X100801850Y-91663521D01*
X100822894Y-91676134D01*
X100842599Y-91690748D01*
X100860778Y-91707224D01*
X100877254Y-91725403D01*
X100891868Y-91745108D01*
X100904481Y-91766152D01*
X100914971Y-91788330D01*
X100923236Y-91811430D01*
X100929197Y-91835228D01*
X100932797Y-91859497D01*
X100934001Y-91884001D01*
X100934001Y-93134001D01*
X100932797Y-93158505D01*
X100929197Y-93182774D01*
X100923236Y-93206572D01*
X100914971Y-93229672D01*
X100904481Y-93251850D01*
X100891868Y-93272894D01*
X100877254Y-93292599D01*
X100860778Y-93310778D01*
X100842599Y-93327254D01*
X100822894Y-93341868D01*
X100801850Y-93354481D01*
X100779672Y-93364971D01*
X100756572Y-93373236D01*
X100732774Y-93379197D01*
X100708505Y-93382797D01*
X100684001Y-93384001D01*
X99934001Y-93384001D01*
X99909497Y-93382797D01*
X99885228Y-93379197D01*
X99861430Y-93373236D01*
X99838330Y-93364971D01*
X99816152Y-93354481D01*
X99795108Y-93341868D01*
X99775403Y-93327254D01*
X99757224Y-93310778D01*
X99740748Y-93292599D01*
X99726134Y-93272894D01*
X99713521Y-93251850D01*
X99703031Y-93229672D01*
X99694766Y-93206572D01*
X99688805Y-93182774D01*
X99685205Y-93158505D01*
X99684001Y-93134001D01*
X99684001Y-91884001D01*
X99685205Y-91859497D01*
X99688805Y-91835228D01*
X99694766Y-91811430D01*
X99703031Y-91788330D01*
X99713521Y-91766152D01*
X99726134Y-91745108D01*
X99740748Y-91725403D01*
X99757224Y-91707224D01*
X99775403Y-91690748D01*
X99795108Y-91676134D01*
X99816152Y-91663521D01*
X99838330Y-91653031D01*
X99861430Y-91644766D01*
X99885228Y-91638805D01*
X99909497Y-91635205D01*
X99934001Y-91634001D01*
X100684001Y-91634001D01*
X100708505Y-91635205D01*
X100708505Y-91635205D01*
G37*
D11*
X100309001Y-92509001D03*
D10*
G36*
X103518505Y-91635205D02*
G01*
X103542774Y-91638805D01*
X103566572Y-91644766D01*
X103589672Y-91653031D01*
X103611850Y-91663521D01*
X103632894Y-91676134D01*
X103652599Y-91690748D01*
X103670778Y-91707224D01*
X103687254Y-91725403D01*
X103701868Y-91745108D01*
X103714481Y-91766152D01*
X103724971Y-91788330D01*
X103733236Y-91811430D01*
X103739197Y-91835228D01*
X103742797Y-91859497D01*
X103744001Y-91884001D01*
X103744001Y-93134001D01*
X103742797Y-93158505D01*
X103739197Y-93182774D01*
X103733236Y-93206572D01*
X103724971Y-93229672D01*
X103714481Y-93251850D01*
X103701868Y-93272894D01*
X103687254Y-93292599D01*
X103670778Y-93310778D01*
X103652599Y-93327254D01*
X103632894Y-93341868D01*
X103611850Y-93354481D01*
X103589672Y-93364971D01*
X103566572Y-93373236D01*
X103542774Y-93379197D01*
X103518505Y-93382797D01*
X103494001Y-93384001D01*
X102744001Y-93384001D01*
X102719497Y-93382797D01*
X102695228Y-93379197D01*
X102671430Y-93373236D01*
X102648330Y-93364971D01*
X102626152Y-93354481D01*
X102605108Y-93341868D01*
X102585403Y-93327254D01*
X102567224Y-93310778D01*
X102550748Y-93292599D01*
X102536134Y-93272894D01*
X102523521Y-93251850D01*
X102513031Y-93229672D01*
X102504766Y-93206572D01*
X102498805Y-93182774D01*
X102495205Y-93158505D01*
X102494001Y-93134001D01*
X102494001Y-91884001D01*
X102495205Y-91859497D01*
X102498805Y-91835228D01*
X102504766Y-91811430D01*
X102513031Y-91788330D01*
X102523521Y-91766152D01*
X102536134Y-91745108D01*
X102550748Y-91725403D01*
X102567224Y-91707224D01*
X102585403Y-91690748D01*
X102605108Y-91676134D01*
X102626152Y-91663521D01*
X102648330Y-91653031D01*
X102671430Y-91644766D01*
X102695228Y-91638805D01*
X102719497Y-91635205D01*
X102744001Y-91634001D01*
X103494001Y-91634001D01*
X103518505Y-91635205D01*
X103518505Y-91635205D01*
G37*
D11*
X103119001Y-92509001D03*
D10*
G36*
X106318505Y-91635205D02*
G01*
X106342774Y-91638805D01*
X106366572Y-91644766D01*
X106389672Y-91653031D01*
X106411850Y-91663521D01*
X106432894Y-91676134D01*
X106452599Y-91690748D01*
X106470778Y-91707224D01*
X106487254Y-91725403D01*
X106501868Y-91745108D01*
X106514481Y-91766152D01*
X106524971Y-91788330D01*
X106533236Y-91811430D01*
X106539197Y-91835228D01*
X106542797Y-91859497D01*
X106544001Y-91884001D01*
X106544001Y-93134001D01*
X106542797Y-93158505D01*
X106539197Y-93182774D01*
X106533236Y-93206572D01*
X106524971Y-93229672D01*
X106514481Y-93251850D01*
X106501868Y-93272894D01*
X106487254Y-93292599D01*
X106470778Y-93310778D01*
X106452599Y-93327254D01*
X106432894Y-93341868D01*
X106411850Y-93354481D01*
X106389672Y-93364971D01*
X106366572Y-93373236D01*
X106342774Y-93379197D01*
X106318505Y-93382797D01*
X106294001Y-93384001D01*
X105544001Y-93384001D01*
X105519497Y-93382797D01*
X105495228Y-93379197D01*
X105471430Y-93373236D01*
X105448330Y-93364971D01*
X105426152Y-93354481D01*
X105405108Y-93341868D01*
X105385403Y-93327254D01*
X105367224Y-93310778D01*
X105350748Y-93292599D01*
X105336134Y-93272894D01*
X105323521Y-93251850D01*
X105313031Y-93229672D01*
X105304766Y-93206572D01*
X105298805Y-93182774D01*
X105295205Y-93158505D01*
X105294001Y-93134001D01*
X105294001Y-91884001D01*
X105295205Y-91859497D01*
X105298805Y-91835228D01*
X105304766Y-91811430D01*
X105313031Y-91788330D01*
X105323521Y-91766152D01*
X105336134Y-91745108D01*
X105350748Y-91725403D01*
X105367224Y-91707224D01*
X105385403Y-91690748D01*
X105405108Y-91676134D01*
X105426152Y-91663521D01*
X105448330Y-91653031D01*
X105471430Y-91644766D01*
X105495228Y-91638805D01*
X105519497Y-91635205D01*
X105544001Y-91634001D01*
X106294001Y-91634001D01*
X106318505Y-91635205D01*
X106318505Y-91635205D01*
G37*
D11*
X105919001Y-92509001D03*
D10*
G36*
X101491504Y-85232204D02*
G01*
X101515773Y-85235804D01*
X101539571Y-85241765D01*
X101562671Y-85250030D01*
X101584849Y-85260520D01*
X101605893Y-85273133D01*
X101625598Y-85287747D01*
X101643777Y-85304223D01*
X101660253Y-85322402D01*
X101674867Y-85342107D01*
X101687480Y-85363151D01*
X101697970Y-85385329D01*
X101706235Y-85408429D01*
X101712196Y-85432227D01*
X101715796Y-85456496D01*
X101717000Y-85481000D01*
X101717000Y-86731000D01*
X101715796Y-86755504D01*
X101712196Y-86779773D01*
X101706235Y-86803571D01*
X101697970Y-86826671D01*
X101687480Y-86848849D01*
X101674867Y-86869893D01*
X101660253Y-86889598D01*
X101643777Y-86907777D01*
X101625598Y-86924253D01*
X101605893Y-86938867D01*
X101584849Y-86951480D01*
X101562671Y-86961970D01*
X101539571Y-86970235D01*
X101515773Y-86976196D01*
X101491504Y-86979796D01*
X101467000Y-86981000D01*
X100717000Y-86981000D01*
X100692496Y-86979796D01*
X100668227Y-86976196D01*
X100644429Y-86970235D01*
X100621329Y-86961970D01*
X100599151Y-86951480D01*
X100578107Y-86938867D01*
X100558402Y-86924253D01*
X100540223Y-86907777D01*
X100523747Y-86889598D01*
X100509133Y-86869893D01*
X100496520Y-86848849D01*
X100486030Y-86826671D01*
X100477765Y-86803571D01*
X100471804Y-86779773D01*
X100468204Y-86755504D01*
X100467000Y-86731000D01*
X100467000Y-85481000D01*
X100468204Y-85456496D01*
X100471804Y-85432227D01*
X100477765Y-85408429D01*
X100486030Y-85385329D01*
X100496520Y-85363151D01*
X100509133Y-85342107D01*
X100523747Y-85322402D01*
X100540223Y-85304223D01*
X100558402Y-85287747D01*
X100578107Y-85273133D01*
X100599151Y-85260520D01*
X100621329Y-85250030D01*
X100644429Y-85241765D01*
X100668227Y-85235804D01*
X100692496Y-85232204D01*
X100717000Y-85231000D01*
X101467000Y-85231000D01*
X101491504Y-85232204D01*
X101491504Y-85232204D01*
G37*
D11*
X101092000Y-86106000D03*
D10*
G36*
X98691504Y-85232204D02*
G01*
X98715773Y-85235804D01*
X98739571Y-85241765D01*
X98762671Y-85250030D01*
X98784849Y-85260520D01*
X98805893Y-85273133D01*
X98825598Y-85287747D01*
X98843777Y-85304223D01*
X98860253Y-85322402D01*
X98874867Y-85342107D01*
X98887480Y-85363151D01*
X98897970Y-85385329D01*
X98906235Y-85408429D01*
X98912196Y-85432227D01*
X98915796Y-85456496D01*
X98917000Y-85481000D01*
X98917000Y-86731000D01*
X98915796Y-86755504D01*
X98912196Y-86779773D01*
X98906235Y-86803571D01*
X98897970Y-86826671D01*
X98887480Y-86848849D01*
X98874867Y-86869893D01*
X98860253Y-86889598D01*
X98843777Y-86907777D01*
X98825598Y-86924253D01*
X98805893Y-86938867D01*
X98784849Y-86951480D01*
X98762671Y-86961970D01*
X98739571Y-86970235D01*
X98715773Y-86976196D01*
X98691504Y-86979796D01*
X98667000Y-86981000D01*
X97917000Y-86981000D01*
X97892496Y-86979796D01*
X97868227Y-86976196D01*
X97844429Y-86970235D01*
X97821329Y-86961970D01*
X97799151Y-86951480D01*
X97778107Y-86938867D01*
X97758402Y-86924253D01*
X97740223Y-86907777D01*
X97723747Y-86889598D01*
X97709133Y-86869893D01*
X97696520Y-86848849D01*
X97686030Y-86826671D01*
X97677765Y-86803571D01*
X97671804Y-86779773D01*
X97668204Y-86755504D01*
X97667000Y-86731000D01*
X97667000Y-85481000D01*
X97668204Y-85456496D01*
X97671804Y-85432227D01*
X97677765Y-85408429D01*
X97686030Y-85385329D01*
X97696520Y-85363151D01*
X97709133Y-85342107D01*
X97723747Y-85322402D01*
X97740223Y-85304223D01*
X97758402Y-85287747D01*
X97778107Y-85273133D01*
X97799151Y-85260520D01*
X97821329Y-85250030D01*
X97844429Y-85241765D01*
X97868227Y-85235804D01*
X97892496Y-85232204D01*
X97917000Y-85231000D01*
X98667000Y-85231000D01*
X98691504Y-85232204D01*
X98691504Y-85232204D01*
G37*
D11*
X98292000Y-86106000D03*
D10*
G36*
X127039904Y-85793004D02*
G01*
X127064173Y-85796604D01*
X127087971Y-85802565D01*
X127111071Y-85810830D01*
X127133249Y-85821320D01*
X127154293Y-85833933D01*
X127173998Y-85848547D01*
X127192177Y-85865023D01*
X127208653Y-85883202D01*
X127223267Y-85902907D01*
X127235880Y-85923951D01*
X127246370Y-85946129D01*
X127254635Y-85969229D01*
X127260596Y-85993027D01*
X127264196Y-86017296D01*
X127265400Y-86041800D01*
X127265400Y-86791800D01*
X127264196Y-86816304D01*
X127260596Y-86840573D01*
X127254635Y-86864371D01*
X127246370Y-86887471D01*
X127235880Y-86909649D01*
X127223267Y-86930693D01*
X127208653Y-86950398D01*
X127192177Y-86968577D01*
X127173998Y-86985053D01*
X127154293Y-86999667D01*
X127133249Y-87012280D01*
X127111071Y-87022770D01*
X127087971Y-87031035D01*
X127064173Y-87036996D01*
X127039904Y-87040596D01*
X127015400Y-87041800D01*
X125765400Y-87041800D01*
X125740896Y-87040596D01*
X125716627Y-87036996D01*
X125692829Y-87031035D01*
X125669729Y-87022770D01*
X125647551Y-87012280D01*
X125626507Y-86999667D01*
X125606802Y-86985053D01*
X125588623Y-86968577D01*
X125572147Y-86950398D01*
X125557533Y-86930693D01*
X125544920Y-86909649D01*
X125534430Y-86887471D01*
X125526165Y-86864371D01*
X125520204Y-86840573D01*
X125516604Y-86816304D01*
X125515400Y-86791800D01*
X125515400Y-86041800D01*
X125516604Y-86017296D01*
X125520204Y-85993027D01*
X125526165Y-85969229D01*
X125534430Y-85946129D01*
X125544920Y-85923951D01*
X125557533Y-85902907D01*
X125572147Y-85883202D01*
X125588623Y-85865023D01*
X125606802Y-85848547D01*
X125626507Y-85833933D01*
X125647551Y-85821320D01*
X125669729Y-85810830D01*
X125692829Y-85802565D01*
X125716627Y-85796604D01*
X125740896Y-85793004D01*
X125765400Y-85791800D01*
X127015400Y-85791800D01*
X127039904Y-85793004D01*
X127039904Y-85793004D01*
G37*
D11*
X126390400Y-86416800D03*
D10*
G36*
X127039904Y-82993004D02*
G01*
X127064173Y-82996604D01*
X127087971Y-83002565D01*
X127111071Y-83010830D01*
X127133249Y-83021320D01*
X127154293Y-83033933D01*
X127173998Y-83048547D01*
X127192177Y-83065023D01*
X127208653Y-83083202D01*
X127223267Y-83102907D01*
X127235880Y-83123951D01*
X127246370Y-83146129D01*
X127254635Y-83169229D01*
X127260596Y-83193027D01*
X127264196Y-83217296D01*
X127265400Y-83241800D01*
X127265400Y-83991800D01*
X127264196Y-84016304D01*
X127260596Y-84040573D01*
X127254635Y-84064371D01*
X127246370Y-84087471D01*
X127235880Y-84109649D01*
X127223267Y-84130693D01*
X127208653Y-84150398D01*
X127192177Y-84168577D01*
X127173998Y-84185053D01*
X127154293Y-84199667D01*
X127133249Y-84212280D01*
X127111071Y-84222770D01*
X127087971Y-84231035D01*
X127064173Y-84236996D01*
X127039904Y-84240596D01*
X127015400Y-84241800D01*
X125765400Y-84241800D01*
X125740896Y-84240596D01*
X125716627Y-84236996D01*
X125692829Y-84231035D01*
X125669729Y-84222770D01*
X125647551Y-84212280D01*
X125626507Y-84199667D01*
X125606802Y-84185053D01*
X125588623Y-84168577D01*
X125572147Y-84150398D01*
X125557533Y-84130693D01*
X125544920Y-84109649D01*
X125534430Y-84087471D01*
X125526165Y-84064371D01*
X125520204Y-84040573D01*
X125516604Y-84016304D01*
X125515400Y-83991800D01*
X125515400Y-83241800D01*
X125516604Y-83217296D01*
X125520204Y-83193027D01*
X125526165Y-83169229D01*
X125534430Y-83146129D01*
X125544920Y-83123951D01*
X125557533Y-83102907D01*
X125572147Y-83083202D01*
X125588623Y-83065023D01*
X125606802Y-83048547D01*
X125626507Y-83033933D01*
X125647551Y-83021320D01*
X125669729Y-83010830D01*
X125692829Y-83002565D01*
X125716627Y-82996604D01*
X125740896Y-82993004D01*
X125765400Y-82991800D01*
X127015400Y-82991800D01*
X127039904Y-82993004D01*
X127039904Y-82993004D01*
G37*
D11*
X126390400Y-83616800D03*
D10*
G36*
X124347504Y-85793004D02*
G01*
X124371773Y-85796604D01*
X124395571Y-85802565D01*
X124418671Y-85810830D01*
X124440849Y-85821320D01*
X124461893Y-85833933D01*
X124481598Y-85848547D01*
X124499777Y-85865023D01*
X124516253Y-85883202D01*
X124530867Y-85902907D01*
X124543480Y-85923951D01*
X124553970Y-85946129D01*
X124562235Y-85969229D01*
X124568196Y-85993027D01*
X124571796Y-86017296D01*
X124573000Y-86041800D01*
X124573000Y-86791800D01*
X124571796Y-86816304D01*
X124568196Y-86840573D01*
X124562235Y-86864371D01*
X124553970Y-86887471D01*
X124543480Y-86909649D01*
X124530867Y-86930693D01*
X124516253Y-86950398D01*
X124499777Y-86968577D01*
X124481598Y-86985053D01*
X124461893Y-86999667D01*
X124440849Y-87012280D01*
X124418671Y-87022770D01*
X124395571Y-87031035D01*
X124371773Y-87036996D01*
X124347504Y-87040596D01*
X124323000Y-87041800D01*
X123073000Y-87041800D01*
X123048496Y-87040596D01*
X123024227Y-87036996D01*
X123000429Y-87031035D01*
X122977329Y-87022770D01*
X122955151Y-87012280D01*
X122934107Y-86999667D01*
X122914402Y-86985053D01*
X122896223Y-86968577D01*
X122879747Y-86950398D01*
X122865133Y-86930693D01*
X122852520Y-86909649D01*
X122842030Y-86887471D01*
X122833765Y-86864371D01*
X122827804Y-86840573D01*
X122824204Y-86816304D01*
X122823000Y-86791800D01*
X122823000Y-86041800D01*
X122824204Y-86017296D01*
X122827804Y-85993027D01*
X122833765Y-85969229D01*
X122842030Y-85946129D01*
X122852520Y-85923951D01*
X122865133Y-85902907D01*
X122879747Y-85883202D01*
X122896223Y-85865023D01*
X122914402Y-85848547D01*
X122934107Y-85833933D01*
X122955151Y-85821320D01*
X122977329Y-85810830D01*
X123000429Y-85802565D01*
X123024227Y-85796604D01*
X123048496Y-85793004D01*
X123073000Y-85791800D01*
X124323000Y-85791800D01*
X124347504Y-85793004D01*
X124347504Y-85793004D01*
G37*
D11*
X123698000Y-86416800D03*
D10*
G36*
X124347504Y-82993004D02*
G01*
X124371773Y-82996604D01*
X124395571Y-83002565D01*
X124418671Y-83010830D01*
X124440849Y-83021320D01*
X124461893Y-83033933D01*
X124481598Y-83048547D01*
X124499777Y-83065023D01*
X124516253Y-83083202D01*
X124530867Y-83102907D01*
X124543480Y-83123951D01*
X124553970Y-83146129D01*
X124562235Y-83169229D01*
X124568196Y-83193027D01*
X124571796Y-83217296D01*
X124573000Y-83241800D01*
X124573000Y-83991800D01*
X124571796Y-84016304D01*
X124568196Y-84040573D01*
X124562235Y-84064371D01*
X124553970Y-84087471D01*
X124543480Y-84109649D01*
X124530867Y-84130693D01*
X124516253Y-84150398D01*
X124499777Y-84168577D01*
X124481598Y-84185053D01*
X124461893Y-84199667D01*
X124440849Y-84212280D01*
X124418671Y-84222770D01*
X124395571Y-84231035D01*
X124371773Y-84236996D01*
X124347504Y-84240596D01*
X124323000Y-84241800D01*
X123073000Y-84241800D01*
X123048496Y-84240596D01*
X123024227Y-84236996D01*
X123000429Y-84231035D01*
X122977329Y-84222770D01*
X122955151Y-84212280D01*
X122934107Y-84199667D01*
X122914402Y-84185053D01*
X122896223Y-84168577D01*
X122879747Y-84150398D01*
X122865133Y-84130693D01*
X122852520Y-84109649D01*
X122842030Y-84087471D01*
X122833765Y-84064371D01*
X122827804Y-84040573D01*
X122824204Y-84016304D01*
X122823000Y-83991800D01*
X122823000Y-83241800D01*
X122824204Y-83217296D01*
X122827804Y-83193027D01*
X122833765Y-83169229D01*
X122842030Y-83146129D01*
X122852520Y-83123951D01*
X122865133Y-83102907D01*
X122879747Y-83083202D01*
X122896223Y-83065023D01*
X122914402Y-83048547D01*
X122934107Y-83033933D01*
X122955151Y-83021320D01*
X122977329Y-83010830D01*
X123000429Y-83002565D01*
X123024227Y-82996604D01*
X123048496Y-82993004D01*
X123073000Y-82991800D01*
X124323000Y-82991800D01*
X124347504Y-82993004D01*
X124347504Y-82993004D01*
G37*
D11*
X123698000Y-83616800D03*
D12*
X88646000Y-79908000D03*
D13*
X88646000Y-86208000D03*
X86346000Y-86208000D03*
X90946000Y-86208000D03*
D10*
G36*
X114696703Y-92664722D02*
G01*
X114711264Y-92666882D01*
X114725543Y-92670459D01*
X114739403Y-92675418D01*
X114752710Y-92681712D01*
X114765336Y-92689280D01*
X114777159Y-92698048D01*
X114788066Y-92707934D01*
X114797952Y-92718841D01*
X114806720Y-92730664D01*
X114814288Y-92743290D01*
X114820582Y-92756597D01*
X114825541Y-92770457D01*
X114829118Y-92784736D01*
X114831278Y-92799297D01*
X114832000Y-92814000D01*
X114832000Y-93114000D01*
X114831278Y-93128703D01*
X114829118Y-93143264D01*
X114825541Y-93157543D01*
X114820582Y-93171403D01*
X114814288Y-93184710D01*
X114806720Y-93197336D01*
X114797952Y-93209159D01*
X114788066Y-93220066D01*
X114777159Y-93229952D01*
X114765336Y-93238720D01*
X114752710Y-93246288D01*
X114739403Y-93252582D01*
X114725543Y-93257541D01*
X114711264Y-93261118D01*
X114696703Y-93263278D01*
X114682000Y-93264000D01*
X113032000Y-93264000D01*
X113017297Y-93263278D01*
X113002736Y-93261118D01*
X112988457Y-93257541D01*
X112974597Y-93252582D01*
X112961290Y-93246288D01*
X112948664Y-93238720D01*
X112936841Y-93229952D01*
X112925934Y-93220066D01*
X112916048Y-93209159D01*
X112907280Y-93197336D01*
X112899712Y-93184710D01*
X112893418Y-93171403D01*
X112888459Y-93157543D01*
X112884882Y-93143264D01*
X112882722Y-93128703D01*
X112882000Y-93114000D01*
X112882000Y-92814000D01*
X112882722Y-92799297D01*
X112884882Y-92784736D01*
X112888459Y-92770457D01*
X112893418Y-92756597D01*
X112899712Y-92743290D01*
X112907280Y-92730664D01*
X112916048Y-92718841D01*
X112925934Y-92707934D01*
X112936841Y-92698048D01*
X112948664Y-92689280D01*
X112961290Y-92681712D01*
X112974597Y-92675418D01*
X112988457Y-92670459D01*
X113002736Y-92666882D01*
X113017297Y-92664722D01*
X113032000Y-92664000D01*
X114682000Y-92664000D01*
X114696703Y-92664722D01*
X114696703Y-92664722D01*
G37*
D14*
X113857000Y-92964000D03*
D10*
G36*
X114696703Y-93934722D02*
G01*
X114711264Y-93936882D01*
X114725543Y-93940459D01*
X114739403Y-93945418D01*
X114752710Y-93951712D01*
X114765336Y-93959280D01*
X114777159Y-93968048D01*
X114788066Y-93977934D01*
X114797952Y-93988841D01*
X114806720Y-94000664D01*
X114814288Y-94013290D01*
X114820582Y-94026597D01*
X114825541Y-94040457D01*
X114829118Y-94054736D01*
X114831278Y-94069297D01*
X114832000Y-94084000D01*
X114832000Y-94384000D01*
X114831278Y-94398703D01*
X114829118Y-94413264D01*
X114825541Y-94427543D01*
X114820582Y-94441403D01*
X114814288Y-94454710D01*
X114806720Y-94467336D01*
X114797952Y-94479159D01*
X114788066Y-94490066D01*
X114777159Y-94499952D01*
X114765336Y-94508720D01*
X114752710Y-94516288D01*
X114739403Y-94522582D01*
X114725543Y-94527541D01*
X114711264Y-94531118D01*
X114696703Y-94533278D01*
X114682000Y-94534000D01*
X113032000Y-94534000D01*
X113017297Y-94533278D01*
X113002736Y-94531118D01*
X112988457Y-94527541D01*
X112974597Y-94522582D01*
X112961290Y-94516288D01*
X112948664Y-94508720D01*
X112936841Y-94499952D01*
X112925934Y-94490066D01*
X112916048Y-94479159D01*
X112907280Y-94467336D01*
X112899712Y-94454710D01*
X112893418Y-94441403D01*
X112888459Y-94427543D01*
X112884882Y-94413264D01*
X112882722Y-94398703D01*
X112882000Y-94384000D01*
X112882000Y-94084000D01*
X112882722Y-94069297D01*
X112884882Y-94054736D01*
X112888459Y-94040457D01*
X112893418Y-94026597D01*
X112899712Y-94013290D01*
X112907280Y-94000664D01*
X112916048Y-93988841D01*
X112925934Y-93977934D01*
X112936841Y-93968048D01*
X112948664Y-93959280D01*
X112961290Y-93951712D01*
X112974597Y-93945418D01*
X112988457Y-93940459D01*
X113002736Y-93936882D01*
X113017297Y-93934722D01*
X113032000Y-93934000D01*
X114682000Y-93934000D01*
X114696703Y-93934722D01*
X114696703Y-93934722D01*
G37*
D14*
X113857000Y-94234000D03*
D10*
G36*
X114696703Y-95204722D02*
G01*
X114711264Y-95206882D01*
X114725543Y-95210459D01*
X114739403Y-95215418D01*
X114752710Y-95221712D01*
X114765336Y-95229280D01*
X114777159Y-95238048D01*
X114788066Y-95247934D01*
X114797952Y-95258841D01*
X114806720Y-95270664D01*
X114814288Y-95283290D01*
X114820582Y-95296597D01*
X114825541Y-95310457D01*
X114829118Y-95324736D01*
X114831278Y-95339297D01*
X114832000Y-95354000D01*
X114832000Y-95654000D01*
X114831278Y-95668703D01*
X114829118Y-95683264D01*
X114825541Y-95697543D01*
X114820582Y-95711403D01*
X114814288Y-95724710D01*
X114806720Y-95737336D01*
X114797952Y-95749159D01*
X114788066Y-95760066D01*
X114777159Y-95769952D01*
X114765336Y-95778720D01*
X114752710Y-95786288D01*
X114739403Y-95792582D01*
X114725543Y-95797541D01*
X114711264Y-95801118D01*
X114696703Y-95803278D01*
X114682000Y-95804000D01*
X113032000Y-95804000D01*
X113017297Y-95803278D01*
X113002736Y-95801118D01*
X112988457Y-95797541D01*
X112974597Y-95792582D01*
X112961290Y-95786288D01*
X112948664Y-95778720D01*
X112936841Y-95769952D01*
X112925934Y-95760066D01*
X112916048Y-95749159D01*
X112907280Y-95737336D01*
X112899712Y-95724710D01*
X112893418Y-95711403D01*
X112888459Y-95697543D01*
X112884882Y-95683264D01*
X112882722Y-95668703D01*
X112882000Y-95654000D01*
X112882000Y-95354000D01*
X112882722Y-95339297D01*
X112884882Y-95324736D01*
X112888459Y-95310457D01*
X112893418Y-95296597D01*
X112899712Y-95283290D01*
X112907280Y-95270664D01*
X112916048Y-95258841D01*
X112925934Y-95247934D01*
X112936841Y-95238048D01*
X112948664Y-95229280D01*
X112961290Y-95221712D01*
X112974597Y-95215418D01*
X112988457Y-95210459D01*
X113002736Y-95206882D01*
X113017297Y-95204722D01*
X113032000Y-95204000D01*
X114682000Y-95204000D01*
X114696703Y-95204722D01*
X114696703Y-95204722D01*
G37*
D14*
X113857000Y-95504000D03*
D10*
G36*
X114696703Y-96474722D02*
G01*
X114711264Y-96476882D01*
X114725543Y-96480459D01*
X114739403Y-96485418D01*
X114752710Y-96491712D01*
X114765336Y-96499280D01*
X114777159Y-96508048D01*
X114788066Y-96517934D01*
X114797952Y-96528841D01*
X114806720Y-96540664D01*
X114814288Y-96553290D01*
X114820582Y-96566597D01*
X114825541Y-96580457D01*
X114829118Y-96594736D01*
X114831278Y-96609297D01*
X114832000Y-96624000D01*
X114832000Y-96924000D01*
X114831278Y-96938703D01*
X114829118Y-96953264D01*
X114825541Y-96967543D01*
X114820582Y-96981403D01*
X114814288Y-96994710D01*
X114806720Y-97007336D01*
X114797952Y-97019159D01*
X114788066Y-97030066D01*
X114777159Y-97039952D01*
X114765336Y-97048720D01*
X114752710Y-97056288D01*
X114739403Y-97062582D01*
X114725543Y-97067541D01*
X114711264Y-97071118D01*
X114696703Y-97073278D01*
X114682000Y-97074000D01*
X113032000Y-97074000D01*
X113017297Y-97073278D01*
X113002736Y-97071118D01*
X112988457Y-97067541D01*
X112974597Y-97062582D01*
X112961290Y-97056288D01*
X112948664Y-97048720D01*
X112936841Y-97039952D01*
X112925934Y-97030066D01*
X112916048Y-97019159D01*
X112907280Y-97007336D01*
X112899712Y-96994710D01*
X112893418Y-96981403D01*
X112888459Y-96967543D01*
X112884882Y-96953264D01*
X112882722Y-96938703D01*
X112882000Y-96924000D01*
X112882000Y-96624000D01*
X112882722Y-96609297D01*
X112884882Y-96594736D01*
X112888459Y-96580457D01*
X112893418Y-96566597D01*
X112899712Y-96553290D01*
X112907280Y-96540664D01*
X112916048Y-96528841D01*
X112925934Y-96517934D01*
X112936841Y-96508048D01*
X112948664Y-96499280D01*
X112961290Y-96491712D01*
X112974597Y-96485418D01*
X112988457Y-96480459D01*
X113002736Y-96476882D01*
X113017297Y-96474722D01*
X113032000Y-96474000D01*
X114682000Y-96474000D01*
X114696703Y-96474722D01*
X114696703Y-96474722D01*
G37*
D14*
X113857000Y-96774000D03*
D10*
G36*
X119646703Y-96474722D02*
G01*
X119661264Y-96476882D01*
X119675543Y-96480459D01*
X119689403Y-96485418D01*
X119702710Y-96491712D01*
X119715336Y-96499280D01*
X119727159Y-96508048D01*
X119738066Y-96517934D01*
X119747952Y-96528841D01*
X119756720Y-96540664D01*
X119764288Y-96553290D01*
X119770582Y-96566597D01*
X119775541Y-96580457D01*
X119779118Y-96594736D01*
X119781278Y-96609297D01*
X119782000Y-96624000D01*
X119782000Y-96924000D01*
X119781278Y-96938703D01*
X119779118Y-96953264D01*
X119775541Y-96967543D01*
X119770582Y-96981403D01*
X119764288Y-96994710D01*
X119756720Y-97007336D01*
X119747952Y-97019159D01*
X119738066Y-97030066D01*
X119727159Y-97039952D01*
X119715336Y-97048720D01*
X119702710Y-97056288D01*
X119689403Y-97062582D01*
X119675543Y-97067541D01*
X119661264Y-97071118D01*
X119646703Y-97073278D01*
X119632000Y-97074000D01*
X117982000Y-97074000D01*
X117967297Y-97073278D01*
X117952736Y-97071118D01*
X117938457Y-97067541D01*
X117924597Y-97062582D01*
X117911290Y-97056288D01*
X117898664Y-97048720D01*
X117886841Y-97039952D01*
X117875934Y-97030066D01*
X117866048Y-97019159D01*
X117857280Y-97007336D01*
X117849712Y-96994710D01*
X117843418Y-96981403D01*
X117838459Y-96967543D01*
X117834882Y-96953264D01*
X117832722Y-96938703D01*
X117832000Y-96924000D01*
X117832000Y-96624000D01*
X117832722Y-96609297D01*
X117834882Y-96594736D01*
X117838459Y-96580457D01*
X117843418Y-96566597D01*
X117849712Y-96553290D01*
X117857280Y-96540664D01*
X117866048Y-96528841D01*
X117875934Y-96517934D01*
X117886841Y-96508048D01*
X117898664Y-96499280D01*
X117911290Y-96491712D01*
X117924597Y-96485418D01*
X117938457Y-96480459D01*
X117952736Y-96476882D01*
X117967297Y-96474722D01*
X117982000Y-96474000D01*
X119632000Y-96474000D01*
X119646703Y-96474722D01*
X119646703Y-96474722D01*
G37*
D14*
X118807000Y-96774000D03*
D10*
G36*
X119646703Y-95204722D02*
G01*
X119661264Y-95206882D01*
X119675543Y-95210459D01*
X119689403Y-95215418D01*
X119702710Y-95221712D01*
X119715336Y-95229280D01*
X119727159Y-95238048D01*
X119738066Y-95247934D01*
X119747952Y-95258841D01*
X119756720Y-95270664D01*
X119764288Y-95283290D01*
X119770582Y-95296597D01*
X119775541Y-95310457D01*
X119779118Y-95324736D01*
X119781278Y-95339297D01*
X119782000Y-95354000D01*
X119782000Y-95654000D01*
X119781278Y-95668703D01*
X119779118Y-95683264D01*
X119775541Y-95697543D01*
X119770582Y-95711403D01*
X119764288Y-95724710D01*
X119756720Y-95737336D01*
X119747952Y-95749159D01*
X119738066Y-95760066D01*
X119727159Y-95769952D01*
X119715336Y-95778720D01*
X119702710Y-95786288D01*
X119689403Y-95792582D01*
X119675543Y-95797541D01*
X119661264Y-95801118D01*
X119646703Y-95803278D01*
X119632000Y-95804000D01*
X117982000Y-95804000D01*
X117967297Y-95803278D01*
X117952736Y-95801118D01*
X117938457Y-95797541D01*
X117924597Y-95792582D01*
X117911290Y-95786288D01*
X117898664Y-95778720D01*
X117886841Y-95769952D01*
X117875934Y-95760066D01*
X117866048Y-95749159D01*
X117857280Y-95737336D01*
X117849712Y-95724710D01*
X117843418Y-95711403D01*
X117838459Y-95697543D01*
X117834882Y-95683264D01*
X117832722Y-95668703D01*
X117832000Y-95654000D01*
X117832000Y-95354000D01*
X117832722Y-95339297D01*
X117834882Y-95324736D01*
X117838459Y-95310457D01*
X117843418Y-95296597D01*
X117849712Y-95283290D01*
X117857280Y-95270664D01*
X117866048Y-95258841D01*
X117875934Y-95247934D01*
X117886841Y-95238048D01*
X117898664Y-95229280D01*
X117911290Y-95221712D01*
X117924597Y-95215418D01*
X117938457Y-95210459D01*
X117952736Y-95206882D01*
X117967297Y-95204722D01*
X117982000Y-95204000D01*
X119632000Y-95204000D01*
X119646703Y-95204722D01*
X119646703Y-95204722D01*
G37*
D14*
X118807000Y-95504000D03*
D10*
G36*
X119646703Y-93934722D02*
G01*
X119661264Y-93936882D01*
X119675543Y-93940459D01*
X119689403Y-93945418D01*
X119702710Y-93951712D01*
X119715336Y-93959280D01*
X119727159Y-93968048D01*
X119738066Y-93977934D01*
X119747952Y-93988841D01*
X119756720Y-94000664D01*
X119764288Y-94013290D01*
X119770582Y-94026597D01*
X119775541Y-94040457D01*
X119779118Y-94054736D01*
X119781278Y-94069297D01*
X119782000Y-94084000D01*
X119782000Y-94384000D01*
X119781278Y-94398703D01*
X119779118Y-94413264D01*
X119775541Y-94427543D01*
X119770582Y-94441403D01*
X119764288Y-94454710D01*
X119756720Y-94467336D01*
X119747952Y-94479159D01*
X119738066Y-94490066D01*
X119727159Y-94499952D01*
X119715336Y-94508720D01*
X119702710Y-94516288D01*
X119689403Y-94522582D01*
X119675543Y-94527541D01*
X119661264Y-94531118D01*
X119646703Y-94533278D01*
X119632000Y-94534000D01*
X117982000Y-94534000D01*
X117967297Y-94533278D01*
X117952736Y-94531118D01*
X117938457Y-94527541D01*
X117924597Y-94522582D01*
X117911290Y-94516288D01*
X117898664Y-94508720D01*
X117886841Y-94499952D01*
X117875934Y-94490066D01*
X117866048Y-94479159D01*
X117857280Y-94467336D01*
X117849712Y-94454710D01*
X117843418Y-94441403D01*
X117838459Y-94427543D01*
X117834882Y-94413264D01*
X117832722Y-94398703D01*
X117832000Y-94384000D01*
X117832000Y-94084000D01*
X117832722Y-94069297D01*
X117834882Y-94054736D01*
X117838459Y-94040457D01*
X117843418Y-94026597D01*
X117849712Y-94013290D01*
X117857280Y-94000664D01*
X117866048Y-93988841D01*
X117875934Y-93977934D01*
X117886841Y-93968048D01*
X117898664Y-93959280D01*
X117911290Y-93951712D01*
X117924597Y-93945418D01*
X117938457Y-93940459D01*
X117952736Y-93936882D01*
X117967297Y-93934722D01*
X117982000Y-93934000D01*
X119632000Y-93934000D01*
X119646703Y-93934722D01*
X119646703Y-93934722D01*
G37*
D14*
X118807000Y-94234000D03*
D10*
G36*
X119646703Y-92664722D02*
G01*
X119661264Y-92666882D01*
X119675543Y-92670459D01*
X119689403Y-92675418D01*
X119702710Y-92681712D01*
X119715336Y-92689280D01*
X119727159Y-92698048D01*
X119738066Y-92707934D01*
X119747952Y-92718841D01*
X119756720Y-92730664D01*
X119764288Y-92743290D01*
X119770582Y-92756597D01*
X119775541Y-92770457D01*
X119779118Y-92784736D01*
X119781278Y-92799297D01*
X119782000Y-92814000D01*
X119782000Y-93114000D01*
X119781278Y-93128703D01*
X119779118Y-93143264D01*
X119775541Y-93157543D01*
X119770582Y-93171403D01*
X119764288Y-93184710D01*
X119756720Y-93197336D01*
X119747952Y-93209159D01*
X119738066Y-93220066D01*
X119727159Y-93229952D01*
X119715336Y-93238720D01*
X119702710Y-93246288D01*
X119689403Y-93252582D01*
X119675543Y-93257541D01*
X119661264Y-93261118D01*
X119646703Y-93263278D01*
X119632000Y-93264000D01*
X117982000Y-93264000D01*
X117967297Y-93263278D01*
X117952736Y-93261118D01*
X117938457Y-93257541D01*
X117924597Y-93252582D01*
X117911290Y-93246288D01*
X117898664Y-93238720D01*
X117886841Y-93229952D01*
X117875934Y-93220066D01*
X117866048Y-93209159D01*
X117857280Y-93197336D01*
X117849712Y-93184710D01*
X117843418Y-93171403D01*
X117838459Y-93157543D01*
X117834882Y-93143264D01*
X117832722Y-93128703D01*
X117832000Y-93114000D01*
X117832000Y-92814000D01*
X117832722Y-92799297D01*
X117834882Y-92784736D01*
X117838459Y-92770457D01*
X117843418Y-92756597D01*
X117849712Y-92743290D01*
X117857280Y-92730664D01*
X117866048Y-92718841D01*
X117875934Y-92707934D01*
X117886841Y-92698048D01*
X117898664Y-92689280D01*
X117911290Y-92681712D01*
X117924597Y-92675418D01*
X117938457Y-92670459D01*
X117952736Y-92666882D01*
X117967297Y-92664722D01*
X117982000Y-92664000D01*
X119632000Y-92664000D01*
X119646703Y-92664722D01*
X119646703Y-92664722D01*
G37*
D14*
X118807000Y-92964000D03*
D10*
G36*
X119581703Y-101427722D02*
G01*
X119596264Y-101429882D01*
X119610543Y-101433459D01*
X119624403Y-101438418D01*
X119637710Y-101444712D01*
X119650336Y-101452280D01*
X119662159Y-101461048D01*
X119673066Y-101470934D01*
X119682952Y-101481841D01*
X119691720Y-101493664D01*
X119699288Y-101506290D01*
X119705582Y-101519597D01*
X119710541Y-101533457D01*
X119714118Y-101547736D01*
X119716278Y-101562297D01*
X119717000Y-101577000D01*
X119717000Y-101877000D01*
X119716278Y-101891703D01*
X119714118Y-101906264D01*
X119710541Y-101920543D01*
X119705582Y-101934403D01*
X119699288Y-101947710D01*
X119691720Y-101960336D01*
X119682952Y-101972159D01*
X119673066Y-101983066D01*
X119662159Y-101992952D01*
X119650336Y-102001720D01*
X119637710Y-102009288D01*
X119624403Y-102015582D01*
X119610543Y-102020541D01*
X119596264Y-102024118D01*
X119581703Y-102026278D01*
X119567000Y-102027000D01*
X117917000Y-102027000D01*
X117902297Y-102026278D01*
X117887736Y-102024118D01*
X117873457Y-102020541D01*
X117859597Y-102015582D01*
X117846290Y-102009288D01*
X117833664Y-102001720D01*
X117821841Y-101992952D01*
X117810934Y-101983066D01*
X117801048Y-101972159D01*
X117792280Y-101960336D01*
X117784712Y-101947710D01*
X117778418Y-101934403D01*
X117773459Y-101920543D01*
X117769882Y-101906264D01*
X117767722Y-101891703D01*
X117767000Y-101877000D01*
X117767000Y-101577000D01*
X117767722Y-101562297D01*
X117769882Y-101547736D01*
X117773459Y-101533457D01*
X117778418Y-101519597D01*
X117784712Y-101506290D01*
X117792280Y-101493664D01*
X117801048Y-101481841D01*
X117810934Y-101470934D01*
X117821841Y-101461048D01*
X117833664Y-101452280D01*
X117846290Y-101444712D01*
X117859597Y-101438418D01*
X117873457Y-101433459D01*
X117887736Y-101429882D01*
X117902297Y-101427722D01*
X117917000Y-101427000D01*
X119567000Y-101427000D01*
X119581703Y-101427722D01*
X119581703Y-101427722D01*
G37*
D14*
X118742000Y-101727000D03*
D10*
G36*
X119581703Y-102697722D02*
G01*
X119596264Y-102699882D01*
X119610543Y-102703459D01*
X119624403Y-102708418D01*
X119637710Y-102714712D01*
X119650336Y-102722280D01*
X119662159Y-102731048D01*
X119673066Y-102740934D01*
X119682952Y-102751841D01*
X119691720Y-102763664D01*
X119699288Y-102776290D01*
X119705582Y-102789597D01*
X119710541Y-102803457D01*
X119714118Y-102817736D01*
X119716278Y-102832297D01*
X119717000Y-102847000D01*
X119717000Y-103147000D01*
X119716278Y-103161703D01*
X119714118Y-103176264D01*
X119710541Y-103190543D01*
X119705582Y-103204403D01*
X119699288Y-103217710D01*
X119691720Y-103230336D01*
X119682952Y-103242159D01*
X119673066Y-103253066D01*
X119662159Y-103262952D01*
X119650336Y-103271720D01*
X119637710Y-103279288D01*
X119624403Y-103285582D01*
X119610543Y-103290541D01*
X119596264Y-103294118D01*
X119581703Y-103296278D01*
X119567000Y-103297000D01*
X117917000Y-103297000D01*
X117902297Y-103296278D01*
X117887736Y-103294118D01*
X117873457Y-103290541D01*
X117859597Y-103285582D01*
X117846290Y-103279288D01*
X117833664Y-103271720D01*
X117821841Y-103262952D01*
X117810934Y-103253066D01*
X117801048Y-103242159D01*
X117792280Y-103230336D01*
X117784712Y-103217710D01*
X117778418Y-103204403D01*
X117773459Y-103190543D01*
X117769882Y-103176264D01*
X117767722Y-103161703D01*
X117767000Y-103147000D01*
X117767000Y-102847000D01*
X117767722Y-102832297D01*
X117769882Y-102817736D01*
X117773459Y-102803457D01*
X117778418Y-102789597D01*
X117784712Y-102776290D01*
X117792280Y-102763664D01*
X117801048Y-102751841D01*
X117810934Y-102740934D01*
X117821841Y-102731048D01*
X117833664Y-102722280D01*
X117846290Y-102714712D01*
X117859597Y-102708418D01*
X117873457Y-102703459D01*
X117887736Y-102699882D01*
X117902297Y-102697722D01*
X117917000Y-102697000D01*
X119567000Y-102697000D01*
X119581703Y-102697722D01*
X119581703Y-102697722D01*
G37*
D14*
X118742000Y-102997000D03*
D10*
G36*
X119581703Y-103967722D02*
G01*
X119596264Y-103969882D01*
X119610543Y-103973459D01*
X119624403Y-103978418D01*
X119637710Y-103984712D01*
X119650336Y-103992280D01*
X119662159Y-104001048D01*
X119673066Y-104010934D01*
X119682952Y-104021841D01*
X119691720Y-104033664D01*
X119699288Y-104046290D01*
X119705582Y-104059597D01*
X119710541Y-104073457D01*
X119714118Y-104087736D01*
X119716278Y-104102297D01*
X119717000Y-104117000D01*
X119717000Y-104417000D01*
X119716278Y-104431703D01*
X119714118Y-104446264D01*
X119710541Y-104460543D01*
X119705582Y-104474403D01*
X119699288Y-104487710D01*
X119691720Y-104500336D01*
X119682952Y-104512159D01*
X119673066Y-104523066D01*
X119662159Y-104532952D01*
X119650336Y-104541720D01*
X119637710Y-104549288D01*
X119624403Y-104555582D01*
X119610543Y-104560541D01*
X119596264Y-104564118D01*
X119581703Y-104566278D01*
X119567000Y-104567000D01*
X117917000Y-104567000D01*
X117902297Y-104566278D01*
X117887736Y-104564118D01*
X117873457Y-104560541D01*
X117859597Y-104555582D01*
X117846290Y-104549288D01*
X117833664Y-104541720D01*
X117821841Y-104532952D01*
X117810934Y-104523066D01*
X117801048Y-104512159D01*
X117792280Y-104500336D01*
X117784712Y-104487710D01*
X117778418Y-104474403D01*
X117773459Y-104460543D01*
X117769882Y-104446264D01*
X117767722Y-104431703D01*
X117767000Y-104417000D01*
X117767000Y-104117000D01*
X117767722Y-104102297D01*
X117769882Y-104087736D01*
X117773459Y-104073457D01*
X117778418Y-104059597D01*
X117784712Y-104046290D01*
X117792280Y-104033664D01*
X117801048Y-104021841D01*
X117810934Y-104010934D01*
X117821841Y-104001048D01*
X117833664Y-103992280D01*
X117846290Y-103984712D01*
X117859597Y-103978418D01*
X117873457Y-103973459D01*
X117887736Y-103969882D01*
X117902297Y-103967722D01*
X117917000Y-103967000D01*
X119567000Y-103967000D01*
X119581703Y-103967722D01*
X119581703Y-103967722D01*
G37*
D14*
X118742000Y-104267000D03*
D10*
G36*
X119581703Y-105237722D02*
G01*
X119596264Y-105239882D01*
X119610543Y-105243459D01*
X119624403Y-105248418D01*
X119637710Y-105254712D01*
X119650336Y-105262280D01*
X119662159Y-105271048D01*
X119673066Y-105280934D01*
X119682952Y-105291841D01*
X119691720Y-105303664D01*
X119699288Y-105316290D01*
X119705582Y-105329597D01*
X119710541Y-105343457D01*
X119714118Y-105357736D01*
X119716278Y-105372297D01*
X119717000Y-105387000D01*
X119717000Y-105687000D01*
X119716278Y-105701703D01*
X119714118Y-105716264D01*
X119710541Y-105730543D01*
X119705582Y-105744403D01*
X119699288Y-105757710D01*
X119691720Y-105770336D01*
X119682952Y-105782159D01*
X119673066Y-105793066D01*
X119662159Y-105802952D01*
X119650336Y-105811720D01*
X119637710Y-105819288D01*
X119624403Y-105825582D01*
X119610543Y-105830541D01*
X119596264Y-105834118D01*
X119581703Y-105836278D01*
X119567000Y-105837000D01*
X117917000Y-105837000D01*
X117902297Y-105836278D01*
X117887736Y-105834118D01*
X117873457Y-105830541D01*
X117859597Y-105825582D01*
X117846290Y-105819288D01*
X117833664Y-105811720D01*
X117821841Y-105802952D01*
X117810934Y-105793066D01*
X117801048Y-105782159D01*
X117792280Y-105770336D01*
X117784712Y-105757710D01*
X117778418Y-105744403D01*
X117773459Y-105730543D01*
X117769882Y-105716264D01*
X117767722Y-105701703D01*
X117767000Y-105687000D01*
X117767000Y-105387000D01*
X117767722Y-105372297D01*
X117769882Y-105357736D01*
X117773459Y-105343457D01*
X117778418Y-105329597D01*
X117784712Y-105316290D01*
X117792280Y-105303664D01*
X117801048Y-105291841D01*
X117810934Y-105280934D01*
X117821841Y-105271048D01*
X117833664Y-105262280D01*
X117846290Y-105254712D01*
X117859597Y-105248418D01*
X117873457Y-105243459D01*
X117887736Y-105239882D01*
X117902297Y-105237722D01*
X117917000Y-105237000D01*
X119567000Y-105237000D01*
X119581703Y-105237722D01*
X119581703Y-105237722D01*
G37*
D14*
X118742000Y-105537000D03*
D10*
G36*
X114631703Y-105237722D02*
G01*
X114646264Y-105239882D01*
X114660543Y-105243459D01*
X114674403Y-105248418D01*
X114687710Y-105254712D01*
X114700336Y-105262280D01*
X114712159Y-105271048D01*
X114723066Y-105280934D01*
X114732952Y-105291841D01*
X114741720Y-105303664D01*
X114749288Y-105316290D01*
X114755582Y-105329597D01*
X114760541Y-105343457D01*
X114764118Y-105357736D01*
X114766278Y-105372297D01*
X114767000Y-105387000D01*
X114767000Y-105687000D01*
X114766278Y-105701703D01*
X114764118Y-105716264D01*
X114760541Y-105730543D01*
X114755582Y-105744403D01*
X114749288Y-105757710D01*
X114741720Y-105770336D01*
X114732952Y-105782159D01*
X114723066Y-105793066D01*
X114712159Y-105802952D01*
X114700336Y-105811720D01*
X114687710Y-105819288D01*
X114674403Y-105825582D01*
X114660543Y-105830541D01*
X114646264Y-105834118D01*
X114631703Y-105836278D01*
X114617000Y-105837000D01*
X112967000Y-105837000D01*
X112952297Y-105836278D01*
X112937736Y-105834118D01*
X112923457Y-105830541D01*
X112909597Y-105825582D01*
X112896290Y-105819288D01*
X112883664Y-105811720D01*
X112871841Y-105802952D01*
X112860934Y-105793066D01*
X112851048Y-105782159D01*
X112842280Y-105770336D01*
X112834712Y-105757710D01*
X112828418Y-105744403D01*
X112823459Y-105730543D01*
X112819882Y-105716264D01*
X112817722Y-105701703D01*
X112817000Y-105687000D01*
X112817000Y-105387000D01*
X112817722Y-105372297D01*
X112819882Y-105357736D01*
X112823459Y-105343457D01*
X112828418Y-105329597D01*
X112834712Y-105316290D01*
X112842280Y-105303664D01*
X112851048Y-105291841D01*
X112860934Y-105280934D01*
X112871841Y-105271048D01*
X112883664Y-105262280D01*
X112896290Y-105254712D01*
X112909597Y-105248418D01*
X112923457Y-105243459D01*
X112937736Y-105239882D01*
X112952297Y-105237722D01*
X112967000Y-105237000D01*
X114617000Y-105237000D01*
X114631703Y-105237722D01*
X114631703Y-105237722D01*
G37*
D14*
X113792000Y-105537000D03*
D10*
G36*
X114631703Y-103967722D02*
G01*
X114646264Y-103969882D01*
X114660543Y-103973459D01*
X114674403Y-103978418D01*
X114687710Y-103984712D01*
X114700336Y-103992280D01*
X114712159Y-104001048D01*
X114723066Y-104010934D01*
X114732952Y-104021841D01*
X114741720Y-104033664D01*
X114749288Y-104046290D01*
X114755582Y-104059597D01*
X114760541Y-104073457D01*
X114764118Y-104087736D01*
X114766278Y-104102297D01*
X114767000Y-104117000D01*
X114767000Y-104417000D01*
X114766278Y-104431703D01*
X114764118Y-104446264D01*
X114760541Y-104460543D01*
X114755582Y-104474403D01*
X114749288Y-104487710D01*
X114741720Y-104500336D01*
X114732952Y-104512159D01*
X114723066Y-104523066D01*
X114712159Y-104532952D01*
X114700336Y-104541720D01*
X114687710Y-104549288D01*
X114674403Y-104555582D01*
X114660543Y-104560541D01*
X114646264Y-104564118D01*
X114631703Y-104566278D01*
X114617000Y-104567000D01*
X112967000Y-104567000D01*
X112952297Y-104566278D01*
X112937736Y-104564118D01*
X112923457Y-104560541D01*
X112909597Y-104555582D01*
X112896290Y-104549288D01*
X112883664Y-104541720D01*
X112871841Y-104532952D01*
X112860934Y-104523066D01*
X112851048Y-104512159D01*
X112842280Y-104500336D01*
X112834712Y-104487710D01*
X112828418Y-104474403D01*
X112823459Y-104460543D01*
X112819882Y-104446264D01*
X112817722Y-104431703D01*
X112817000Y-104417000D01*
X112817000Y-104117000D01*
X112817722Y-104102297D01*
X112819882Y-104087736D01*
X112823459Y-104073457D01*
X112828418Y-104059597D01*
X112834712Y-104046290D01*
X112842280Y-104033664D01*
X112851048Y-104021841D01*
X112860934Y-104010934D01*
X112871841Y-104001048D01*
X112883664Y-103992280D01*
X112896290Y-103984712D01*
X112909597Y-103978418D01*
X112923457Y-103973459D01*
X112937736Y-103969882D01*
X112952297Y-103967722D01*
X112967000Y-103967000D01*
X114617000Y-103967000D01*
X114631703Y-103967722D01*
X114631703Y-103967722D01*
G37*
D14*
X113792000Y-104267000D03*
D10*
G36*
X114631703Y-102697722D02*
G01*
X114646264Y-102699882D01*
X114660543Y-102703459D01*
X114674403Y-102708418D01*
X114687710Y-102714712D01*
X114700336Y-102722280D01*
X114712159Y-102731048D01*
X114723066Y-102740934D01*
X114732952Y-102751841D01*
X114741720Y-102763664D01*
X114749288Y-102776290D01*
X114755582Y-102789597D01*
X114760541Y-102803457D01*
X114764118Y-102817736D01*
X114766278Y-102832297D01*
X114767000Y-102847000D01*
X114767000Y-103147000D01*
X114766278Y-103161703D01*
X114764118Y-103176264D01*
X114760541Y-103190543D01*
X114755582Y-103204403D01*
X114749288Y-103217710D01*
X114741720Y-103230336D01*
X114732952Y-103242159D01*
X114723066Y-103253066D01*
X114712159Y-103262952D01*
X114700336Y-103271720D01*
X114687710Y-103279288D01*
X114674403Y-103285582D01*
X114660543Y-103290541D01*
X114646264Y-103294118D01*
X114631703Y-103296278D01*
X114617000Y-103297000D01*
X112967000Y-103297000D01*
X112952297Y-103296278D01*
X112937736Y-103294118D01*
X112923457Y-103290541D01*
X112909597Y-103285582D01*
X112896290Y-103279288D01*
X112883664Y-103271720D01*
X112871841Y-103262952D01*
X112860934Y-103253066D01*
X112851048Y-103242159D01*
X112842280Y-103230336D01*
X112834712Y-103217710D01*
X112828418Y-103204403D01*
X112823459Y-103190543D01*
X112819882Y-103176264D01*
X112817722Y-103161703D01*
X112817000Y-103147000D01*
X112817000Y-102847000D01*
X112817722Y-102832297D01*
X112819882Y-102817736D01*
X112823459Y-102803457D01*
X112828418Y-102789597D01*
X112834712Y-102776290D01*
X112842280Y-102763664D01*
X112851048Y-102751841D01*
X112860934Y-102740934D01*
X112871841Y-102731048D01*
X112883664Y-102722280D01*
X112896290Y-102714712D01*
X112909597Y-102708418D01*
X112923457Y-102703459D01*
X112937736Y-102699882D01*
X112952297Y-102697722D01*
X112967000Y-102697000D01*
X114617000Y-102697000D01*
X114631703Y-102697722D01*
X114631703Y-102697722D01*
G37*
D14*
X113792000Y-102997000D03*
D10*
G36*
X114631703Y-101427722D02*
G01*
X114646264Y-101429882D01*
X114660543Y-101433459D01*
X114674403Y-101438418D01*
X114687710Y-101444712D01*
X114700336Y-101452280D01*
X114712159Y-101461048D01*
X114723066Y-101470934D01*
X114732952Y-101481841D01*
X114741720Y-101493664D01*
X114749288Y-101506290D01*
X114755582Y-101519597D01*
X114760541Y-101533457D01*
X114764118Y-101547736D01*
X114766278Y-101562297D01*
X114767000Y-101577000D01*
X114767000Y-101877000D01*
X114766278Y-101891703D01*
X114764118Y-101906264D01*
X114760541Y-101920543D01*
X114755582Y-101934403D01*
X114749288Y-101947710D01*
X114741720Y-101960336D01*
X114732952Y-101972159D01*
X114723066Y-101983066D01*
X114712159Y-101992952D01*
X114700336Y-102001720D01*
X114687710Y-102009288D01*
X114674403Y-102015582D01*
X114660543Y-102020541D01*
X114646264Y-102024118D01*
X114631703Y-102026278D01*
X114617000Y-102027000D01*
X112967000Y-102027000D01*
X112952297Y-102026278D01*
X112937736Y-102024118D01*
X112923457Y-102020541D01*
X112909597Y-102015582D01*
X112896290Y-102009288D01*
X112883664Y-102001720D01*
X112871841Y-101992952D01*
X112860934Y-101983066D01*
X112851048Y-101972159D01*
X112842280Y-101960336D01*
X112834712Y-101947710D01*
X112828418Y-101934403D01*
X112823459Y-101920543D01*
X112819882Y-101906264D01*
X112817722Y-101891703D01*
X112817000Y-101877000D01*
X112817000Y-101577000D01*
X112817722Y-101562297D01*
X112819882Y-101547736D01*
X112823459Y-101533457D01*
X112828418Y-101519597D01*
X112834712Y-101506290D01*
X112842280Y-101493664D01*
X112851048Y-101481841D01*
X112860934Y-101470934D01*
X112871841Y-101461048D01*
X112883664Y-101452280D01*
X112896290Y-101444712D01*
X112909597Y-101438418D01*
X112923457Y-101433459D01*
X112937736Y-101429882D01*
X112952297Y-101427722D01*
X112967000Y-101427000D01*
X114617000Y-101427000D01*
X114631703Y-101427722D01*
X114631703Y-101427722D01*
G37*
D14*
X113792000Y-101727000D03*
D10*
G36*
X75072703Y-110825722D02*
G01*
X75087264Y-110827882D01*
X75101543Y-110831459D01*
X75115403Y-110836418D01*
X75128710Y-110842712D01*
X75141336Y-110850280D01*
X75153159Y-110859048D01*
X75164066Y-110868934D01*
X75173952Y-110879841D01*
X75182720Y-110891664D01*
X75190288Y-110904290D01*
X75196582Y-110917597D01*
X75201541Y-110931457D01*
X75205118Y-110945736D01*
X75207278Y-110960297D01*
X75208000Y-110975000D01*
X75208000Y-111275000D01*
X75207278Y-111289703D01*
X75205118Y-111304264D01*
X75201541Y-111318543D01*
X75196582Y-111332403D01*
X75190288Y-111345710D01*
X75182720Y-111358336D01*
X75173952Y-111370159D01*
X75164066Y-111381066D01*
X75153159Y-111390952D01*
X75141336Y-111399720D01*
X75128710Y-111407288D01*
X75115403Y-111413582D01*
X75101543Y-111418541D01*
X75087264Y-111422118D01*
X75072703Y-111424278D01*
X75058000Y-111425000D01*
X73408000Y-111425000D01*
X73393297Y-111424278D01*
X73378736Y-111422118D01*
X73364457Y-111418541D01*
X73350597Y-111413582D01*
X73337290Y-111407288D01*
X73324664Y-111399720D01*
X73312841Y-111390952D01*
X73301934Y-111381066D01*
X73292048Y-111370159D01*
X73283280Y-111358336D01*
X73275712Y-111345710D01*
X73269418Y-111332403D01*
X73264459Y-111318543D01*
X73260882Y-111304264D01*
X73258722Y-111289703D01*
X73258000Y-111275000D01*
X73258000Y-110975000D01*
X73258722Y-110960297D01*
X73260882Y-110945736D01*
X73264459Y-110931457D01*
X73269418Y-110917597D01*
X73275712Y-110904290D01*
X73283280Y-110891664D01*
X73292048Y-110879841D01*
X73301934Y-110868934D01*
X73312841Y-110859048D01*
X73324664Y-110850280D01*
X73337290Y-110842712D01*
X73350597Y-110836418D01*
X73364457Y-110831459D01*
X73378736Y-110827882D01*
X73393297Y-110825722D01*
X73408000Y-110825000D01*
X75058000Y-110825000D01*
X75072703Y-110825722D01*
X75072703Y-110825722D01*
G37*
D14*
X74233000Y-111125000D03*
D10*
G36*
X75072703Y-109555722D02*
G01*
X75087264Y-109557882D01*
X75101543Y-109561459D01*
X75115403Y-109566418D01*
X75128710Y-109572712D01*
X75141336Y-109580280D01*
X75153159Y-109589048D01*
X75164066Y-109598934D01*
X75173952Y-109609841D01*
X75182720Y-109621664D01*
X75190288Y-109634290D01*
X75196582Y-109647597D01*
X75201541Y-109661457D01*
X75205118Y-109675736D01*
X75207278Y-109690297D01*
X75208000Y-109705000D01*
X75208000Y-110005000D01*
X75207278Y-110019703D01*
X75205118Y-110034264D01*
X75201541Y-110048543D01*
X75196582Y-110062403D01*
X75190288Y-110075710D01*
X75182720Y-110088336D01*
X75173952Y-110100159D01*
X75164066Y-110111066D01*
X75153159Y-110120952D01*
X75141336Y-110129720D01*
X75128710Y-110137288D01*
X75115403Y-110143582D01*
X75101543Y-110148541D01*
X75087264Y-110152118D01*
X75072703Y-110154278D01*
X75058000Y-110155000D01*
X73408000Y-110155000D01*
X73393297Y-110154278D01*
X73378736Y-110152118D01*
X73364457Y-110148541D01*
X73350597Y-110143582D01*
X73337290Y-110137288D01*
X73324664Y-110129720D01*
X73312841Y-110120952D01*
X73301934Y-110111066D01*
X73292048Y-110100159D01*
X73283280Y-110088336D01*
X73275712Y-110075710D01*
X73269418Y-110062403D01*
X73264459Y-110048543D01*
X73260882Y-110034264D01*
X73258722Y-110019703D01*
X73258000Y-110005000D01*
X73258000Y-109705000D01*
X73258722Y-109690297D01*
X73260882Y-109675736D01*
X73264459Y-109661457D01*
X73269418Y-109647597D01*
X73275712Y-109634290D01*
X73283280Y-109621664D01*
X73292048Y-109609841D01*
X73301934Y-109598934D01*
X73312841Y-109589048D01*
X73324664Y-109580280D01*
X73337290Y-109572712D01*
X73350597Y-109566418D01*
X73364457Y-109561459D01*
X73378736Y-109557882D01*
X73393297Y-109555722D01*
X73408000Y-109555000D01*
X75058000Y-109555000D01*
X75072703Y-109555722D01*
X75072703Y-109555722D01*
G37*
D14*
X74233000Y-109855000D03*
D10*
G36*
X75072703Y-108285722D02*
G01*
X75087264Y-108287882D01*
X75101543Y-108291459D01*
X75115403Y-108296418D01*
X75128710Y-108302712D01*
X75141336Y-108310280D01*
X75153159Y-108319048D01*
X75164066Y-108328934D01*
X75173952Y-108339841D01*
X75182720Y-108351664D01*
X75190288Y-108364290D01*
X75196582Y-108377597D01*
X75201541Y-108391457D01*
X75205118Y-108405736D01*
X75207278Y-108420297D01*
X75208000Y-108435000D01*
X75208000Y-108735000D01*
X75207278Y-108749703D01*
X75205118Y-108764264D01*
X75201541Y-108778543D01*
X75196582Y-108792403D01*
X75190288Y-108805710D01*
X75182720Y-108818336D01*
X75173952Y-108830159D01*
X75164066Y-108841066D01*
X75153159Y-108850952D01*
X75141336Y-108859720D01*
X75128710Y-108867288D01*
X75115403Y-108873582D01*
X75101543Y-108878541D01*
X75087264Y-108882118D01*
X75072703Y-108884278D01*
X75058000Y-108885000D01*
X73408000Y-108885000D01*
X73393297Y-108884278D01*
X73378736Y-108882118D01*
X73364457Y-108878541D01*
X73350597Y-108873582D01*
X73337290Y-108867288D01*
X73324664Y-108859720D01*
X73312841Y-108850952D01*
X73301934Y-108841066D01*
X73292048Y-108830159D01*
X73283280Y-108818336D01*
X73275712Y-108805710D01*
X73269418Y-108792403D01*
X73264459Y-108778543D01*
X73260882Y-108764264D01*
X73258722Y-108749703D01*
X73258000Y-108735000D01*
X73258000Y-108435000D01*
X73258722Y-108420297D01*
X73260882Y-108405736D01*
X73264459Y-108391457D01*
X73269418Y-108377597D01*
X73275712Y-108364290D01*
X73283280Y-108351664D01*
X73292048Y-108339841D01*
X73301934Y-108328934D01*
X73312841Y-108319048D01*
X73324664Y-108310280D01*
X73337290Y-108302712D01*
X73350597Y-108296418D01*
X73364457Y-108291459D01*
X73378736Y-108287882D01*
X73393297Y-108285722D01*
X73408000Y-108285000D01*
X75058000Y-108285000D01*
X75072703Y-108285722D01*
X75072703Y-108285722D01*
G37*
D14*
X74233000Y-108585000D03*
D10*
G36*
X75072703Y-107015722D02*
G01*
X75087264Y-107017882D01*
X75101543Y-107021459D01*
X75115403Y-107026418D01*
X75128710Y-107032712D01*
X75141336Y-107040280D01*
X75153159Y-107049048D01*
X75164066Y-107058934D01*
X75173952Y-107069841D01*
X75182720Y-107081664D01*
X75190288Y-107094290D01*
X75196582Y-107107597D01*
X75201541Y-107121457D01*
X75205118Y-107135736D01*
X75207278Y-107150297D01*
X75208000Y-107165000D01*
X75208000Y-107465000D01*
X75207278Y-107479703D01*
X75205118Y-107494264D01*
X75201541Y-107508543D01*
X75196582Y-107522403D01*
X75190288Y-107535710D01*
X75182720Y-107548336D01*
X75173952Y-107560159D01*
X75164066Y-107571066D01*
X75153159Y-107580952D01*
X75141336Y-107589720D01*
X75128710Y-107597288D01*
X75115403Y-107603582D01*
X75101543Y-107608541D01*
X75087264Y-107612118D01*
X75072703Y-107614278D01*
X75058000Y-107615000D01*
X73408000Y-107615000D01*
X73393297Y-107614278D01*
X73378736Y-107612118D01*
X73364457Y-107608541D01*
X73350597Y-107603582D01*
X73337290Y-107597288D01*
X73324664Y-107589720D01*
X73312841Y-107580952D01*
X73301934Y-107571066D01*
X73292048Y-107560159D01*
X73283280Y-107548336D01*
X73275712Y-107535710D01*
X73269418Y-107522403D01*
X73264459Y-107508543D01*
X73260882Y-107494264D01*
X73258722Y-107479703D01*
X73258000Y-107465000D01*
X73258000Y-107165000D01*
X73258722Y-107150297D01*
X73260882Y-107135736D01*
X73264459Y-107121457D01*
X73269418Y-107107597D01*
X73275712Y-107094290D01*
X73283280Y-107081664D01*
X73292048Y-107069841D01*
X73301934Y-107058934D01*
X73312841Y-107049048D01*
X73324664Y-107040280D01*
X73337290Y-107032712D01*
X73350597Y-107026418D01*
X73364457Y-107021459D01*
X73378736Y-107017882D01*
X73393297Y-107015722D01*
X73408000Y-107015000D01*
X75058000Y-107015000D01*
X75072703Y-107015722D01*
X75072703Y-107015722D01*
G37*
D14*
X74233000Y-107315000D03*
D10*
G36*
X80022703Y-107015722D02*
G01*
X80037264Y-107017882D01*
X80051543Y-107021459D01*
X80065403Y-107026418D01*
X80078710Y-107032712D01*
X80091336Y-107040280D01*
X80103159Y-107049048D01*
X80114066Y-107058934D01*
X80123952Y-107069841D01*
X80132720Y-107081664D01*
X80140288Y-107094290D01*
X80146582Y-107107597D01*
X80151541Y-107121457D01*
X80155118Y-107135736D01*
X80157278Y-107150297D01*
X80158000Y-107165000D01*
X80158000Y-107465000D01*
X80157278Y-107479703D01*
X80155118Y-107494264D01*
X80151541Y-107508543D01*
X80146582Y-107522403D01*
X80140288Y-107535710D01*
X80132720Y-107548336D01*
X80123952Y-107560159D01*
X80114066Y-107571066D01*
X80103159Y-107580952D01*
X80091336Y-107589720D01*
X80078710Y-107597288D01*
X80065403Y-107603582D01*
X80051543Y-107608541D01*
X80037264Y-107612118D01*
X80022703Y-107614278D01*
X80008000Y-107615000D01*
X78358000Y-107615000D01*
X78343297Y-107614278D01*
X78328736Y-107612118D01*
X78314457Y-107608541D01*
X78300597Y-107603582D01*
X78287290Y-107597288D01*
X78274664Y-107589720D01*
X78262841Y-107580952D01*
X78251934Y-107571066D01*
X78242048Y-107560159D01*
X78233280Y-107548336D01*
X78225712Y-107535710D01*
X78219418Y-107522403D01*
X78214459Y-107508543D01*
X78210882Y-107494264D01*
X78208722Y-107479703D01*
X78208000Y-107465000D01*
X78208000Y-107165000D01*
X78208722Y-107150297D01*
X78210882Y-107135736D01*
X78214459Y-107121457D01*
X78219418Y-107107597D01*
X78225712Y-107094290D01*
X78233280Y-107081664D01*
X78242048Y-107069841D01*
X78251934Y-107058934D01*
X78262841Y-107049048D01*
X78274664Y-107040280D01*
X78287290Y-107032712D01*
X78300597Y-107026418D01*
X78314457Y-107021459D01*
X78328736Y-107017882D01*
X78343297Y-107015722D01*
X78358000Y-107015000D01*
X80008000Y-107015000D01*
X80022703Y-107015722D01*
X80022703Y-107015722D01*
G37*
D14*
X79183000Y-107315000D03*
D10*
G36*
X80022703Y-108285722D02*
G01*
X80037264Y-108287882D01*
X80051543Y-108291459D01*
X80065403Y-108296418D01*
X80078710Y-108302712D01*
X80091336Y-108310280D01*
X80103159Y-108319048D01*
X80114066Y-108328934D01*
X80123952Y-108339841D01*
X80132720Y-108351664D01*
X80140288Y-108364290D01*
X80146582Y-108377597D01*
X80151541Y-108391457D01*
X80155118Y-108405736D01*
X80157278Y-108420297D01*
X80158000Y-108435000D01*
X80158000Y-108735000D01*
X80157278Y-108749703D01*
X80155118Y-108764264D01*
X80151541Y-108778543D01*
X80146582Y-108792403D01*
X80140288Y-108805710D01*
X80132720Y-108818336D01*
X80123952Y-108830159D01*
X80114066Y-108841066D01*
X80103159Y-108850952D01*
X80091336Y-108859720D01*
X80078710Y-108867288D01*
X80065403Y-108873582D01*
X80051543Y-108878541D01*
X80037264Y-108882118D01*
X80022703Y-108884278D01*
X80008000Y-108885000D01*
X78358000Y-108885000D01*
X78343297Y-108884278D01*
X78328736Y-108882118D01*
X78314457Y-108878541D01*
X78300597Y-108873582D01*
X78287290Y-108867288D01*
X78274664Y-108859720D01*
X78262841Y-108850952D01*
X78251934Y-108841066D01*
X78242048Y-108830159D01*
X78233280Y-108818336D01*
X78225712Y-108805710D01*
X78219418Y-108792403D01*
X78214459Y-108778543D01*
X78210882Y-108764264D01*
X78208722Y-108749703D01*
X78208000Y-108735000D01*
X78208000Y-108435000D01*
X78208722Y-108420297D01*
X78210882Y-108405736D01*
X78214459Y-108391457D01*
X78219418Y-108377597D01*
X78225712Y-108364290D01*
X78233280Y-108351664D01*
X78242048Y-108339841D01*
X78251934Y-108328934D01*
X78262841Y-108319048D01*
X78274664Y-108310280D01*
X78287290Y-108302712D01*
X78300597Y-108296418D01*
X78314457Y-108291459D01*
X78328736Y-108287882D01*
X78343297Y-108285722D01*
X78358000Y-108285000D01*
X80008000Y-108285000D01*
X80022703Y-108285722D01*
X80022703Y-108285722D01*
G37*
D14*
X79183000Y-108585000D03*
D10*
G36*
X80022703Y-109555722D02*
G01*
X80037264Y-109557882D01*
X80051543Y-109561459D01*
X80065403Y-109566418D01*
X80078710Y-109572712D01*
X80091336Y-109580280D01*
X80103159Y-109589048D01*
X80114066Y-109598934D01*
X80123952Y-109609841D01*
X80132720Y-109621664D01*
X80140288Y-109634290D01*
X80146582Y-109647597D01*
X80151541Y-109661457D01*
X80155118Y-109675736D01*
X80157278Y-109690297D01*
X80158000Y-109705000D01*
X80158000Y-110005000D01*
X80157278Y-110019703D01*
X80155118Y-110034264D01*
X80151541Y-110048543D01*
X80146582Y-110062403D01*
X80140288Y-110075710D01*
X80132720Y-110088336D01*
X80123952Y-110100159D01*
X80114066Y-110111066D01*
X80103159Y-110120952D01*
X80091336Y-110129720D01*
X80078710Y-110137288D01*
X80065403Y-110143582D01*
X80051543Y-110148541D01*
X80037264Y-110152118D01*
X80022703Y-110154278D01*
X80008000Y-110155000D01*
X78358000Y-110155000D01*
X78343297Y-110154278D01*
X78328736Y-110152118D01*
X78314457Y-110148541D01*
X78300597Y-110143582D01*
X78287290Y-110137288D01*
X78274664Y-110129720D01*
X78262841Y-110120952D01*
X78251934Y-110111066D01*
X78242048Y-110100159D01*
X78233280Y-110088336D01*
X78225712Y-110075710D01*
X78219418Y-110062403D01*
X78214459Y-110048543D01*
X78210882Y-110034264D01*
X78208722Y-110019703D01*
X78208000Y-110005000D01*
X78208000Y-109705000D01*
X78208722Y-109690297D01*
X78210882Y-109675736D01*
X78214459Y-109661457D01*
X78219418Y-109647597D01*
X78225712Y-109634290D01*
X78233280Y-109621664D01*
X78242048Y-109609841D01*
X78251934Y-109598934D01*
X78262841Y-109589048D01*
X78274664Y-109580280D01*
X78287290Y-109572712D01*
X78300597Y-109566418D01*
X78314457Y-109561459D01*
X78328736Y-109557882D01*
X78343297Y-109555722D01*
X78358000Y-109555000D01*
X80008000Y-109555000D01*
X80022703Y-109555722D01*
X80022703Y-109555722D01*
G37*
D14*
X79183000Y-109855000D03*
D10*
G36*
X80022703Y-110825722D02*
G01*
X80037264Y-110827882D01*
X80051543Y-110831459D01*
X80065403Y-110836418D01*
X80078710Y-110842712D01*
X80091336Y-110850280D01*
X80103159Y-110859048D01*
X80114066Y-110868934D01*
X80123952Y-110879841D01*
X80132720Y-110891664D01*
X80140288Y-110904290D01*
X80146582Y-110917597D01*
X80151541Y-110931457D01*
X80155118Y-110945736D01*
X80157278Y-110960297D01*
X80158000Y-110975000D01*
X80158000Y-111275000D01*
X80157278Y-111289703D01*
X80155118Y-111304264D01*
X80151541Y-111318543D01*
X80146582Y-111332403D01*
X80140288Y-111345710D01*
X80132720Y-111358336D01*
X80123952Y-111370159D01*
X80114066Y-111381066D01*
X80103159Y-111390952D01*
X80091336Y-111399720D01*
X80078710Y-111407288D01*
X80065403Y-111413582D01*
X80051543Y-111418541D01*
X80037264Y-111422118D01*
X80022703Y-111424278D01*
X80008000Y-111425000D01*
X78358000Y-111425000D01*
X78343297Y-111424278D01*
X78328736Y-111422118D01*
X78314457Y-111418541D01*
X78300597Y-111413582D01*
X78287290Y-111407288D01*
X78274664Y-111399720D01*
X78262841Y-111390952D01*
X78251934Y-111381066D01*
X78242048Y-111370159D01*
X78233280Y-111358336D01*
X78225712Y-111345710D01*
X78219418Y-111332403D01*
X78214459Y-111318543D01*
X78210882Y-111304264D01*
X78208722Y-111289703D01*
X78208000Y-111275000D01*
X78208000Y-110975000D01*
X78208722Y-110960297D01*
X78210882Y-110945736D01*
X78214459Y-110931457D01*
X78219418Y-110917597D01*
X78225712Y-110904290D01*
X78233280Y-110891664D01*
X78242048Y-110879841D01*
X78251934Y-110868934D01*
X78262841Y-110859048D01*
X78274664Y-110850280D01*
X78287290Y-110842712D01*
X78300597Y-110836418D01*
X78314457Y-110831459D01*
X78328736Y-110827882D01*
X78343297Y-110825722D01*
X78358000Y-110825000D01*
X80008000Y-110825000D01*
X80022703Y-110825722D01*
X80022703Y-110825722D01*
G37*
D14*
X79183000Y-111125000D03*
D10*
G36*
X135167904Y-71845404D02*
G01*
X135192173Y-71849004D01*
X135215971Y-71854965D01*
X135239071Y-71863230D01*
X135261249Y-71873720D01*
X135282293Y-71886333D01*
X135301998Y-71900947D01*
X135320177Y-71917423D01*
X135336653Y-71935602D01*
X135351267Y-71955307D01*
X135363880Y-71976351D01*
X135374370Y-71998529D01*
X135382635Y-72021629D01*
X135388596Y-72045427D01*
X135392196Y-72069696D01*
X135393400Y-72094200D01*
X135393400Y-72844200D01*
X135392196Y-72868704D01*
X135388596Y-72892973D01*
X135382635Y-72916771D01*
X135374370Y-72939871D01*
X135363880Y-72962049D01*
X135351267Y-72983093D01*
X135336653Y-73002798D01*
X135320177Y-73020977D01*
X135301998Y-73037453D01*
X135282293Y-73052067D01*
X135261249Y-73064680D01*
X135239071Y-73075170D01*
X135215971Y-73083435D01*
X135192173Y-73089396D01*
X135167904Y-73092996D01*
X135143400Y-73094200D01*
X133893400Y-73094200D01*
X133868896Y-73092996D01*
X133844627Y-73089396D01*
X133820829Y-73083435D01*
X133797729Y-73075170D01*
X133775551Y-73064680D01*
X133754507Y-73052067D01*
X133734802Y-73037453D01*
X133716623Y-73020977D01*
X133700147Y-73002798D01*
X133685533Y-72983093D01*
X133672920Y-72962049D01*
X133662430Y-72939871D01*
X133654165Y-72916771D01*
X133648204Y-72892973D01*
X133644604Y-72868704D01*
X133643400Y-72844200D01*
X133643400Y-72094200D01*
X133644604Y-72069696D01*
X133648204Y-72045427D01*
X133654165Y-72021629D01*
X133662430Y-71998529D01*
X133672920Y-71976351D01*
X133685533Y-71955307D01*
X133700147Y-71935602D01*
X133716623Y-71917423D01*
X133734802Y-71900947D01*
X133754507Y-71886333D01*
X133775551Y-71873720D01*
X133797729Y-71863230D01*
X133820829Y-71854965D01*
X133844627Y-71849004D01*
X133868896Y-71845404D01*
X133893400Y-71844200D01*
X135143400Y-71844200D01*
X135167904Y-71845404D01*
X135167904Y-71845404D01*
G37*
D11*
X134518400Y-72469200D03*
D10*
G36*
X135167904Y-69045404D02*
G01*
X135192173Y-69049004D01*
X135215971Y-69054965D01*
X135239071Y-69063230D01*
X135261249Y-69073720D01*
X135282293Y-69086333D01*
X135301998Y-69100947D01*
X135320177Y-69117423D01*
X135336653Y-69135602D01*
X135351267Y-69155307D01*
X135363880Y-69176351D01*
X135374370Y-69198529D01*
X135382635Y-69221629D01*
X135388596Y-69245427D01*
X135392196Y-69269696D01*
X135393400Y-69294200D01*
X135393400Y-70044200D01*
X135392196Y-70068704D01*
X135388596Y-70092973D01*
X135382635Y-70116771D01*
X135374370Y-70139871D01*
X135363880Y-70162049D01*
X135351267Y-70183093D01*
X135336653Y-70202798D01*
X135320177Y-70220977D01*
X135301998Y-70237453D01*
X135282293Y-70252067D01*
X135261249Y-70264680D01*
X135239071Y-70275170D01*
X135215971Y-70283435D01*
X135192173Y-70289396D01*
X135167904Y-70292996D01*
X135143400Y-70294200D01*
X133893400Y-70294200D01*
X133868896Y-70292996D01*
X133844627Y-70289396D01*
X133820829Y-70283435D01*
X133797729Y-70275170D01*
X133775551Y-70264680D01*
X133754507Y-70252067D01*
X133734802Y-70237453D01*
X133716623Y-70220977D01*
X133700147Y-70202798D01*
X133685533Y-70183093D01*
X133672920Y-70162049D01*
X133662430Y-70139871D01*
X133654165Y-70116771D01*
X133648204Y-70092973D01*
X133644604Y-70068704D01*
X133643400Y-70044200D01*
X133643400Y-69294200D01*
X133644604Y-69269696D01*
X133648204Y-69245427D01*
X133654165Y-69221629D01*
X133662430Y-69198529D01*
X133672920Y-69176351D01*
X133685533Y-69155307D01*
X133700147Y-69135602D01*
X133716623Y-69117423D01*
X133734802Y-69100947D01*
X133754507Y-69086333D01*
X133775551Y-69073720D01*
X133797729Y-69063230D01*
X133820829Y-69054965D01*
X133844627Y-69049004D01*
X133868896Y-69045404D01*
X133893400Y-69044200D01*
X135143400Y-69044200D01*
X135167904Y-69045404D01*
X135167904Y-69045404D01*
G37*
D11*
X134518400Y-69669200D03*
M02*
